<svg width="15" height="20" viewBox="0 0 15 20" fill="none" xmlns="http://www.w3.org/2000/svg">
<path d="M13.7725 19.9998H0.748507C0.549991 19.9998 0.359605 19.9209 0.219232 19.7806C0.0788601 19.6402 0 19.4498 0 19.2513V5.05808C0 4.85956 0.0788601 4.66918 0.219232 4.5288C0.359605 4.38843 0.549991 4.30957 0.748507 4.30957H13.7725C13.971 4.30957 14.1614 4.38843 14.3018 4.5288C14.4422 4.66918 14.521 4.85956 14.521 5.05808V19.2513C14.521 19.4498 14.4422 19.6402 14.3018 19.7806C14.1614 19.9209 13.971 19.9998 13.7725 19.9998ZM1.49701 18.5028H13.024V5.80659H1.49701V18.5028Z" fill="#FA4242"/>
<path d="M10.1793 8.42308C9.98076 8.42308 9.79038 8.34422 9.65 8.20384C9.50963 8.06347 9.43077 7.87309 9.43077 7.67457V3.60768C9.4186 3.04004 9.18456 2.49976 8.7788 2.10261C8.37305 1.70546 7.82787 1.48306 7.2601 1.48306C6.69233 1.48306 6.14715 1.70546 5.74139 2.10261C5.33564 2.49976 5.1016 3.04004 5.08942 3.60768V7.67457C5.08942 7.87309 5.01056 8.06347 4.87019 8.20384C4.72982 8.34422 4.53943 8.42308 4.34092 8.42308C4.1424 8.42308 3.95201 8.34422 3.81164 8.20384C3.67127 8.06347 3.59241 7.87309 3.59241 7.67457V3.60768C3.60828 2.64543 4.00168 1.72796 4.68778 1.05308C5.37387 0.37821 6.29771 0 7.2601 0C8.22248 0 9.14632 0.37821 9.83242 1.05308C10.5185 1.72796 10.9119 2.64543 10.9278 3.60768V7.67457C10.9278 7.87309 10.8489 8.06347 10.7086 8.20384C10.5682 8.34422 10.3778 8.42308 10.1793 8.42308Z" fill="#FA4242"/>
</svg>
