<svg id="Layer_1" enable-background="new 0 0 512 512" height="512" viewBox="0 0 512 512" width="512" xmlns="http://www.w3.org/2000/svg"><g><circle cx="320.267" cy="31.067" r="15"/><path d="m63.2 54.1h9.1v9.1c0 8.284 6.716 15 15 15s15-6.716 15-15v-9.1h9.101c8.284 0 15-6.716 15-15s-6.716-15-15-15h-9.101v-9.1c0-8.284-6.716-15-15-15s-15 6.716-15 15v9.1h-9.1c-8.284 0-15 6.716-15 15s6.716 15 15 15z"/><path d="m448.8 94.267c25.989 0 47.134-21.144 47.134-47.133s-21.145-47.134-47.134-47.134-47.133 21.144-47.133 47.133 21.144 47.134 47.133 47.134zm0-64.267c9.447 0 17.134 7.686 17.134 17.133s-7.687 17.133-17.134 17.133-17.133-7.686-17.133-17.133 7.686-17.133 17.133-17.133z"/><path d="m480.934 192.8h-49.267v-17.133c0-8.284-6.716-15-15-15h-17.134v-9.1c0-30.476-24.652-55.167-55.167-55.167-26.105 0-40.326 17.376-42.403 19.865-8.294-8.793-19.076-15.213-31.209-18.126-2.643-27.975-26.266-49.939-54.921-49.939s-52.277 21.96-54.92 49.935c-27.754 6.657-48.446 31.683-48.446 61.449v1.083h-17.134c-8.284 0-15 6.716-15 15v17.133h-49.267c-8.284 0-15 6.716-15 15 0 68.098 38.957 127.253 95.749 156.389l16.834 134.672c.938 7.506 7.319 13.14 14.884 13.14h224.934c7.564 0 13.946-5.633 14.884-13.14l16.834-134.672c56.792-29.135 95.749-88.291 95.749-156.389 0-8.284-6.716-15-15-15zm-161.734-41.233c0-13.857 11.263-25.167 25.166-25.167 13.943 0 25.167 11.347 25.167 25.167v9.1h-50.333zm-176.733 8.017c0-18.298 14.886-33.184 33.2-33.184 8.284 0 15-6.716 15-15v-8.033c0-13.877 11.289-25.167 25.166-25.167s25.167 11.29 25.167 25.167v8.033c0 8.284 6.716 15 15 15 18.307 0 33.2 14.894 33.2 33.2v1.066h-146.733zm-95.634 63.216h33.5v17.133c0 8.284 6.716 15 15 15h2.826l8.916 71.333c-33.078-23.703-55.867-60.894-60.242-103.466zm308.392 259.2h-198.45l-13.155-105.248c10.663 3.041 21.735 5.101 33.114 6.068v17.78c0 8.284 6.716 15 15 15h128.533c8.284 0 15-6.716 15-15v-17.78c11.379-.967 22.451-3.027 33.114-6.068zm-148.492-96.4v-34.267h98.533v34.267zm165.77-41.829c-11.759 4.532-24.246 7.585-37.236 8.92v-16.358c0-8.284-6.716-15-15-15h-128.534c-8.284 0-15 6.716-15 15v16.358c-12.99-1.335-25.478-4.388-37.236-8.92l-11.104-88.838h255.215zm29.164-118.838h-291.334v-34.267h291.334zm3.258 101.333 8.916-71.333h2.826c8.284 0 15-6.716 15-15v-17.133h33.5c-4.375 42.572-27.164 79.763-60.242 103.466z"/></g></svg>