<svg height="512pt" viewBox="0 0 512 512" width="512pt" xmlns="http://www.w3.org/2000/svg"><path d="m512 286c0-24.8125-20.1875-45-45-45h-51.730469l-17.5625-35.125c-7.671875-15.34375-23.09375-24.875-40.246093-24.875h-202.921876c-17.152343 0-32.574218 9.53125-40.246093 24.875l-17.5625 35.125h-51.730469c-24.8125 0-45 20.1875-45 45 0 21.050781 14.53125 38.765625 34.085938 43.65625-1.984376 5.070312-3.085938 10.578125-3.085938 16.34375v60c0 19.554688 12.539062 36.226562 30 42.421875v18.578125c0 24.8125 20.1875 45 45 45h30c24.8125 0 45-20.1875 45-45v-16h150v16c0 24.8125 20.1875 45 45 45h30c24.8125 0 45-20.1875 45-45v-18.578125c17.460938-6.195313 30-22.867187 30-42.421875v-60c0-5.84375-1.132812-11.425781-3.167969-16.550781 7.507813-1.992188 14.464844-5.863281 20.246094-11.394531 8.976563-8.582032 13.921875-19.964844 13.921875-32.054688zm-370.875-66.707031c2.558594-5.117188 7.699219-8.292969 13.414062-8.292969h202.921876c5.714843 0 10.855468 3.175781 13.414062 8.292969 1.964844 3.925781 30.90625 61.808593 40.855469 81.707031h-311.460938c4.988281-9.972656 34.3125-68.621094 40.855469-81.707031zm-96.125 51.707031h36.730469l-15 30h-21.730469c-8.269531 0-15-6.730469-15-15s6.730469-15 15-15zm106 196c0 8.269531-6.730469 15-15 15h-30c-8.269531 0-15-6.730469-15-15v-16h60zm255 15h-30c-8.269531 0-15-6.730469-15-15v-16h60v16c0 8.269531-6.730469 15-15 15zm30-61h-105v-45c0-8.285156-6.714844-15-15-15s-15 6.714844-15 15v45h-30v-45c0-8.285156-6.714844-15-15-15s-15 6.714844-15 15v45h-30v-45c0-8.285156-6.714844-15-15-15s-15 6.714844-15 15v45h-105c-8.269531 0-15-6.730469-15-15v-15h45c8.285156 0 15-6.714844 15-15s-6.714844-15-15-15h-45v-15c0-8.269531 6.730469-15 15-15h360c8.269531 0 15 6.730469 15 15v15h-45c-8.285156 0-15 6.714844-15 15s6.714844 15 15 15h45v15c0 8.269531-6.730469 15-15 15zm30-120h-20.730469l-15-30h36.730469c8.269531 0 15 6.730469 15 15 0 7.992188-7.476562 15-16 15zm0 0"/><path d="m106 150h90c19.554688 0 36.226562-12.539062 42.421875-30h167.578125c3.980469 0 7.792969-1.578125 10.605469-4.394531l30-30c5.859375-5.855469 5.859375-15.351563 0-21.210938l-30-30c-2.8125-2.816406-6.625-4.394531-10.605469-4.394531h-167.578125c-6.195313-17.460938-22.867187-30-42.421875-30h-60c-41.355469 0-75 33.644531-75 75v30c0 24.8125 20.1875 45 45 45zm308.785156-75-15 15h-158.785156v-30h158.785156zm-323.785156 0c0-24.8125 20.1875-45 45-45h60c8.269531 0 15 6.730469 15 15v60c0 8.269531-6.730469 15-15 15h-90c-8.269531 0-15-6.730469-15-15zm0 0"/><path d="m150.972656 75c0 8.285156-6.71875 15-15 15-8.285156 0-15-6.714844-15-15s6.714844-15 15-15c8.28125 0 15 6.714844 15 15zm0 0"/></svg>