<svg width="22" height="20" viewBox="0 0 22 20" fill="none" xmlns="http://www.w3.org/2000/svg">
<path d="M11 18.7527C7.27576 18.7527 4.0097 16.3061 3.13636 12.9012C1.95455 12.88 1 11.9115 1 10.7249C1 9.52486 1.97636 8.54789 3.17697 8.54789H3.36364C3.89939 7.10547 4.90303 5.81941 6.20849 4.9085C6.34364 4.81395 6.53333 4.84547 6.6303 4.98365C6.72606 5.12123 6.69273 5.30971 6.55515 5.40547C5.29333 6.28608 4.33758 7.54365 3.86485 8.94789C3.82364 9.07092 3.70788 9.15395 3.57758 9.15395H3.17697C2.31091 9.15395 1.60606 9.8588 1.60606 10.7249C1.60606 11.5909 2.31091 12.2958 3.17697 12.2958H3.37576C3.51758 12.2958 3.64121 12.3946 3.67152 12.534C4.3903 15.7861 7.47212 18.1473 11 18.1473C14.5279 18.1473 17.6103 15.7861 18.3291 12.534C18.36 12.3952 18.483 12.2958 18.6248 12.2958H18.8236C19.6897 12.2958 20.3939 11.5909 20.3939 10.7249C20.3939 9.8588 19.6897 9.15395 18.8236 9.15395H18.4224C18.2921 9.15395 18.177 9.07092 18.1352 8.94729C17.6582 7.53214 16.7345 6.31214 15.4661 5.42062C15.3285 5.32426 15.2964 5.13517 15.3921 4.9988C15.4891 4.86183 15.6782 4.82911 15.8139 4.92486C17.1279 5.84789 18.1 7.09759 18.6364 8.5485H18.8236C20.023 8.5485 21 9.52486 21 10.7255C21 11.9121 20.0455 12.8806 18.8642 12.9018C17.9909 16.3061 14.7242 18.7527 11 18.7527Z" fill="#34A1D3"/>
<path fill-rule="evenodd" clip-rule="evenodd" d="M6.6303 4.98366C6.53333 4.84547 6.34364 4.81396 6.20849 4.90851C4.90303 5.81941 3.89939 7.10547 3.36364 8.5479H3.17697C1.97636 8.5479 1 9.52487 1 10.7249C1 11.9115 1.95455 12.88 3.13636 12.9012C4.0097 16.3061 7.27576 18.7527 11 18.7527C14.7242 18.7527 17.9909 16.3061 18.8642 12.9018C20.0455 12.8806 21 11.9121 21 10.7255C21 9.52487 20.023 8.5485 18.8236 8.5485H18.6364C18.1 7.0976 17.1279 5.8479 15.8139 4.92487C15.6782 4.82911 15.4891 4.86184 15.3921 4.99881C15.2964 5.13517 15.3285 5.32426 15.4661 5.42063C16.7345 6.31214 17.6582 7.53214 18.1352 8.94729C18.177 9.07093 18.2921 9.15396 18.4224 9.15396H18.8236C19.6897 9.15396 20.3939 9.85881 20.3939 10.7249C20.3939 11.5909 19.6897 12.2958 18.8236 12.2958H18.6248C18.483 12.2958 18.36 12.3952 18.3291 12.534C17.6103 15.7861 14.5279 18.1473 11 18.1473C7.47212 18.1473 4.3903 15.7861 3.67152 12.534C3.64121 12.3946 3.51758 12.2958 3.37576 12.2958H3.17697C2.31091 12.2958 1.60606 11.5909 1.60606 10.7249C1.60606 9.85881 2.31091 9.15396 3.17697 9.15396H3.57758C3.70788 9.15396 3.82364 9.07093 3.86485 8.9479C4.33758 7.54366 5.29333 6.28608 6.55515 5.40547C6.69273 5.30972 6.72606 5.12123 6.6303 4.98366ZM4.33872 9.10742C4.22862 9.43508 3.9213 9.65396 3.57758 9.65396H3.17697C2.58705 9.65396 2.10606 10.1349 2.10606 10.7249C2.10606 11.3148 2.58705 11.7958 3.17697 11.7958H3.37576C3.75113 11.7958 4.07893 12.0567 4.15987 12.4267C4.82412 15.4306 7.68701 17.6473 11 17.6473C14.3133 17.6473 17.1769 15.4302 17.8409 12.4261L17.841 12.4253C17.9224 12.06 18.2465 11.7958 18.6248 11.7958H18.8236C19.4133 11.7958 19.8939 11.315 19.8939 10.7249C19.8939 10.1347 19.4133 9.65396 18.8236 9.65396H18.4224C18.0764 9.65396 17.7716 9.43297 17.6615 9.10749L17.6613 9.10699C17.2197 7.79679 16.3636 6.66258 15.1786 5.8297C14.8137 5.57362 14.7295 5.07234 14.9829 4.71147L14.984 4.7099C15.2388 4.34998 15.7386 4.26018 16.1018 4.51603C17.3979 5.42665 18.3856 6.64111 18.9782 8.05292C20.3821 8.13325 21.5 9.30065 21.5 10.7255C21.5 12.0556 20.5255 13.1625 19.2525 13.368C18.1942 16.8278 14.8117 19.2527 11 19.2527C7.18821 19.2527 3.80629 16.8277 2.74813 13.3674C1.47458 13.162 0.5 12.0552 0.5 10.7249C0.5 9.3006 1.6174 8.13251 3.02259 8.05229C3.61871 6.64317 4.63335 5.3979 5.92237 4.49846C6.28233 4.24704 6.78344 4.33144 7.03958 4.69644L7.04069 4.69802L7.04068 4.69802C7.29331 5.06097 7.20619 5.56111 6.8413 5.8155M4.33872 9.10742C4.77582 7.809 5.66334 6.63766 6.84105 5.81568L4.33872 9.10742Z" fill="#34A1D3"/>
<path d="M13.5395 12.6261C13.9438 12.6261 14.2716 12.2983 14.2716 11.894C14.2716 11.4896 13.9438 11.1619 13.5395 11.1619C13.1352 11.1619 12.8074 11.4896 12.8074 11.894C12.8074 12.2983 13.1352 12.6261 13.5395 12.6261Z" fill="#34A1D3"/>
<path fill-rule="evenodd" clip-rule="evenodd" d="M14.7716 11.894C14.7716 12.5745 14.22 13.1261 13.5395 13.1261C12.859 13.1261 12.3074 12.5745 12.3074 11.894C12.3074 11.2135 12.859 10.6619 13.5395 10.6619C14.22 10.6619 14.7716 11.2135 14.7716 11.894ZM14.2716 11.894C14.2716 12.2983 13.9438 12.6261 13.5395 12.6261C13.1352 12.6261 12.8074 12.2983 12.8074 11.894C12.8074 11.4896 13.1352 11.1619 13.5395 11.1619C13.9438 11.1619 14.2716 11.4896 14.2716 11.894Z" fill="#34A1D3"/>
<path d="M8.74006 12.6261C9.1444 12.6261 9.47218 12.2983 9.47218 11.894C9.47218 11.4896 9.1444 11.1619 8.74006 11.1619C8.33572 11.1619 8.00793 11.4896 8.00793 11.894C8.00793 12.2983 8.33572 12.6261 8.74006 12.6261Z" fill="#34A1D3"/>
<path fill-rule="evenodd" clip-rule="evenodd" d="M9.97218 11.894C9.97218 12.5745 9.42054 13.1261 8.74006 13.1261C8.05957 13.1261 7.50793 12.5745 7.50793 11.894C7.50793 11.2135 8.05957 10.6619 8.74006 10.6619C9.42054 10.6619 9.97218 11.2135 9.97218 11.894ZM9.47218 11.894C9.47218 12.2983 9.1444 12.6261 8.74006 12.6261C8.33572 12.6261 8.00793 12.2983 8.00793 11.894C8.00793 11.4896 8.33572 11.1619 8.74006 11.1619C9.1444 11.1619 9.47218 11.4896 9.47218 11.894Z" fill="#34A1D3"/>
<path d="M11 15.8556C10.2588 15.8556 9.51877 15.652 8.85816 15.2453L8.73998 15.1732C8.59755 15.0853 8.5521 14.8993 8.63937 14.7562C8.72786 14.6126 8.91452 14.569 9.05634 14.6556L9.17513 14.7283C10.3018 15.4223 11.6994 15.4217 12.8248 14.729L12.943 14.6556C13.0848 14.569 13.2721 14.6114 13.36 14.7544C13.4479 14.8968 13.403 15.0835 13.2612 15.1714L13.1424 15.2447C12.4812 15.652 11.7406 15.8556 11 15.8556Z" fill="#34A1D3"/>
<path fill-rule="evenodd" clip-rule="evenodd" d="M9.17516 14.7285C10.3018 15.4224 11.6994 15.4218 12.8249 14.7291L12.943 14.6558C13.0849 14.5691 13.2721 14.6115 13.36 14.7546C13.4479 14.897 13.403 15.0836 13.2612 15.1715L13.1424 15.2449C12.4812 15.6521 11.7406 15.8558 11 15.8558C10.2588 15.8558 9.51879 15.6521 8.85819 15.2455L8.74 15.1733C8.59758 15.0855 8.55213 14.8994 8.6394 14.7564C8.72788 14.6127 8.91455 14.5691 9.05637 14.6558L9.17516 14.7285ZM8.59693 15.6718L8.47745 15.5989C8.10292 15.3678 7.98071 14.8759 8.21258 14.4959L8.21369 14.4941C8.44689 14.1156 8.94065 13.9991 9.31709 14.2291L9.43737 14.3028C10.403 14.8975 11.5974 14.8971 12.562 14.3038C12.5623 14.3036 12.5618 14.3039 12.562 14.3038L12.6823 14.2291C13.0543 14.0018 13.5504 14.1099 13.7857 14.4923C14.0191 14.871 13.8991 15.3645 13.5246 15.5965L13.4051 15.6703C12.6646 16.1264 11.8327 16.3558 11 16.3558C10.167 16.3558 9.33651 16.1268 8.59693 15.6718Z" fill="#34A1D3"/>
<path d="M10.9999 5.16248C10.206 5.16248 9.56055 4.51702 9.56055 3.72309C9.56055 2.92915 10.206 2.28369 10.9999 2.28369C11.7939 2.28369 12.4393 2.92915 12.4393 3.72309C12.4393 4.51702 11.7939 5.16248 10.9999 5.16248ZM10.9999 2.88975C10.5405 2.88975 10.1666 3.26369 10.1666 3.72309C10.1666 4.18248 10.5405 4.55642 10.9999 4.55642C11.4593 4.55642 11.8333 4.18248 11.8333 3.72309C11.8333 3.26369 11.4593 2.88975 10.9999 2.88975Z" fill="#34A1D3"/>
<path fill-rule="evenodd" clip-rule="evenodd" d="M10.9999 5.66248C9.92986 5.66248 9.06055 4.79317 9.06055 3.72309C9.06055 2.653 9.92986 1.78369 10.9999 1.78369C12.07 1.78369 12.9393 2.653 12.9393 3.72309C12.9393 4.79317 12.07 5.66248 10.9999 5.66248ZM10.9999 3.38975C10.8167 3.38975 10.6666 3.53983 10.6666 3.72309C10.6666 3.90634 10.8167 4.05642 10.9999 4.05642C11.1832 4.05642 11.3333 3.90634 11.3333 3.72309C11.3333 3.53983 11.1832 3.38975 10.9999 3.38975ZM9.56055 3.72309C9.56055 4.51702 10.206 5.16248 10.9999 5.16248C11.7939 5.16248 12.4393 4.51702 12.4393 3.72309C12.4393 2.92915 11.7939 2.28369 10.9999 2.28369C10.206 2.28369 9.56055 2.92915 9.56055 3.72309ZM10.1666 3.72309C10.1666 3.26369 10.5405 2.88975 10.9999 2.88975C11.4593 2.88975 11.8333 3.26369 11.8333 3.72309C11.8333 4.18248 11.4593 4.55642 10.9999 4.55642C10.5405 4.55642 10.1666 4.18248 10.1666 3.72309Z" fill="#34A1D3"/>
<path d="M14.4701 6.44682C14.2919 6.44682 14.1125 6.41348 13.9416 6.34621L10.8889 5.14136C10.7331 5.07954 10.6568 4.90378 10.7186 4.74863C10.7798 4.59288 10.9556 4.5153 11.1113 4.57833L14.1641 5.78318C14.4259 5.8856 14.7071 5.85409 14.9386 5.69651C15.1701 5.53894 15.3034 5.28742 15.3034 5.00742V2.43954C15.3034 2.15894 15.1701 1.90803 14.9386 1.74985C14.7065 1.59227 14.4241 1.56136 14.1641 1.66439L11.1113 2.86863C10.955 2.93166 10.7792 2.85409 10.7186 2.69833C10.6568 2.54257 10.7331 2.36621 10.8889 2.3056L13.9416 1.10136C14.3847 0.926816 14.8853 0.981362 15.2792 1.24924C15.6737 1.51773 15.9095 1.96318 15.9095 2.44015V5.00803C15.9095 5.485 15.6737 5.92985 15.2798 6.19833C15.0374 6.36257 14.7544 6.44682 14.4701 6.44682Z" fill="#34A1D3"/>
<path fill-rule="evenodd" clip-rule="evenodd" d="M13.7582 6.81124L10.7054 5.60639C10.2949 5.44347 10.0892 4.9776 10.2542 4.56351L10.7187 4.74858L10.2533 4.56569C10.4141 4.15656 10.879 3.94638 11.2965 4.1138L14.3463 5.31749C14.4549 5.3598 14.5629 5.34738 14.6574 5.28311C14.7524 5.21844 14.8035 5.12153 14.8035 5.00736V2.43949C14.8035 2.32533 14.7528 2.22865 14.6572 2.16306C14.5622 2.0988 14.4541 2.08725 14.3483 2.12917L11.2962 3.33316C10.8801 3.49959 10.4142 3.29216 10.2533 2.88116C10.0911 2.47004 10.2917 2.00227 10.7063 1.8401L13.7582 0.636186C14.3542 0.401378 15.029 0.474331 15.5604 0.83572C16.0917 1.19725 16.4096 1.79753 16.4096 2.44009V5.00797C16.4096 5.65069 16.0918 6.25004 15.5615 6.61144L15.5603 6.61222C15.2339 6.83338 14.8529 6.94676 14.4702 6.94676C14.2297 6.94676 13.9877 6.90159 13.7582 6.81124ZM10.889 2.30555C10.7332 2.36615 10.6569 2.54252 10.7187 2.69827C10.7793 2.85403 10.955 2.93161 11.1114 2.86858L14.1641 1.66434C14.4241 1.5613 14.7066 1.59221 14.9387 1.74979C15.1702 1.90797 15.3035 2.15888 15.3035 2.43949V5.00736C15.3035 5.28736 15.1702 5.53888 14.9387 5.69646C14.7072 5.85403 14.426 5.88555 14.1641 5.78312L11.1114 4.57827M10.889 2.30555C11.332 2.131 14.8854 0.981305 15.2793 1.24918C15.6738 1.51767 15.9096 1.96312 15.9096 2.44009V5.00797C15.9096 5.48494 15.6738 5.92979 15.2799 6.19827C15.0375 6.36252 14.7544 6.44676 14.4702 6.44676C14.292 6.44676 11.2823 4.64555 11.1114 4.57827" fill="#34A1D3"/>
<path d="M7.93944 6.44682C8.11762 6.44682 8.29701 6.41348 8.46792 6.34621L11.5206 5.14136C11.6764 5.07954 11.7528 4.90378 11.691 4.74863C11.6297 4.59288 11.454 4.5153 11.2982 4.57833L8.2455 5.78318C7.98368 5.8856 7.70246 5.85409 7.47095 5.69651C7.23943 5.53894 7.1061 5.28742 7.1061 5.00742V2.43954C7.1061 2.15894 7.23943 1.90803 7.47095 1.74985C7.70307 1.59227 7.9855 1.56136 8.2455 1.66439L11.2982 2.86863C11.4546 2.93166 11.6303 2.85409 11.691 2.69833C11.7528 2.54257 11.6764 2.36621 11.5206 2.3056L8.46792 1.10136C8.02489 0.926816 7.52428 0.981362 7.13034 1.24924C6.7358 1.51773 6.50004 1.96318 6.50004 2.44015V5.00803C6.50004 5.485 6.7358 5.92985 7.12974 6.19833C7.37216 6.36257 7.65519 6.44682 7.93944 6.44682Z" fill="#34A1D3"/>
<path fill-rule="evenodd" clip-rule="evenodd" d="M8.65139 6.81124L11.7041 5.60639C12.1146 5.44347 12.3203 4.9776 12.1553 4.56351L11.6909 4.74858L12.1562 4.56569C11.9954 4.15656 11.5306 3.94638 11.113 4.1138L8.06325 5.31749C7.95465 5.3598 7.84661 5.34738 7.75219 5.28311C7.65718 5.21844 7.60601 5.12153 7.60601 5.00736V2.43949C7.60601 2.32533 7.65671 2.22865 7.7523 2.16306C7.84736 2.0988 7.95542 2.08725 8.06121 2.12917L11.1133 3.33316C11.5295 3.49959 11.9953 3.29216 12.1562 2.88116C12.3184 2.47004 12.1178 2.00227 11.7032 1.8401L8.65131 0.636186C8.05532 0.401378 7.38055 0.474331 6.8491 0.83572C6.31782 1.19725 5.99995 1.79753 5.99995 2.44009V5.00797C5.99995 5.65069 6.31779 6.25004 6.84806 6.61144L6.8492 6.61222C7.17564 6.83338 7.55663 6.94676 7.93935 6.94676C8.17987 6.94676 8.42184 6.90159 8.65139 6.81124ZM11.5206 2.30555C11.6763 2.36615 11.7527 2.54252 11.6909 2.69827C11.6303 2.85403 11.4545 2.93161 11.2981 2.86858L8.24541 1.66434C7.98541 1.5613 7.70298 1.59221 7.47086 1.74979C7.23935 1.90797 7.10601 2.15888 7.10601 2.43949V5.00736C7.10601 5.28736 7.23935 5.53888 7.47086 5.69646C7.70238 5.85403 7.98359 5.88555 8.24541 5.78312L11.2981 4.57827M11.5206 2.30555C11.0775 2.131 7.52419 0.981305 7.13025 1.24918C6.73571 1.51767 6.49995 1.96312 6.49995 2.44009V5.00797C6.49995 5.48494 6.73571 5.92979 7.12965 6.19827C7.37207 6.36252 7.6551 6.44676 7.93935 6.44676C8.11753 6.44676 11.1272 4.64555 11.2981 4.57827" fill="#34A1D3"/>
<path fill-rule="evenodd" clip-rule="evenodd" d="M8.24331 6.81083L8.05877 6.34619L8.24235 6.81122L8.24331 6.81083Z" fill="#34A1D3"/>
</svg>
