<svg width="20" height="20" viewBox="0 0 20 20" fill="none" xmlns="http://www.w3.org/2000/svg">
<path d="M3.57059 2.92857C3.92563 2.92857 4.21345 3.21639 4.21345 3.57143C4.21345 3.92647 3.92563 4.21429 3.57059 4.21429C3.21555 4.21429 2.92773 3.92647 2.92773 3.57143C2.92773 3.21639 3.21555 2.92857 3.57059 2.92857Z" fill="#FA4242"/>
<path fill-rule="evenodd" clip-rule="evenodd" d="M4.61306 3.57142C4.61306 2.99547 4.14616 2.52856 3.5702 2.52856C2.99425 2.52856 2.52734 2.99547 2.52734 3.57142C2.52734 4.14738 2.99425 4.61428 3.5702 4.61428C4.14616 4.61428 4.61306 4.14737 4.61306 3.57142ZM4.21306 3.57142C4.21306 3.21638 3.92524 2.92856 3.5702 2.92856C3.21516 2.92856 2.92734 3.21638 2.92734 3.57142C2.92734 3.92646 3.21516 4.21428 3.5702 4.21428C3.92524 4.21428 4.21306 3.92646 4.21306 3.57142Z" fill="#FA4242"/>
<path d="M19 10.3214C19 11.2214 18.2929 11.9285 17.3929 11.9285H13.5357C14.1786 15.1429 13.8571 19 11.2857 19C8.71429 19 10.0643 15.9143 9.0357 13.9857C8.00713 12.0571 6.14286 11.9286 6.14286 11.9286H5.82145H2.28571C1.57855 11.9286 1 11.35 1 10.6429V2.28571C1 1.57859 1.57855 1 2.28571 1H5.82145H9.55002H14.8214C15.7214 1 16.4286 1.70713 16.4286 2.60713C16.4286 2.99284 16.3 3.31425 16.1072 3.57143C17.0072 3.57143 17.7143 4.27855 17.7143 5.17855C17.7143 5.56427 17.5857 5.94998 17.3286 6.27143C17.9714 6.52854 18.3571 7.10713 18.3571 7.74998C18.3571 8.1357 18.2286 8.52141 17.9714 8.84286C18.55 9.0357 19 9.61429 19 10.3214ZM5.5 1.64286H2.28571C1.9643 1.64286 1.64286 1.96427 1.64286 2.28571V10.6429C1.64286 11.0286 1.9 11.2857 2.28571 11.2857H5.5V1.64286ZM17.3929 9.35714H15.1429V8.71428H16.75C17.2643 8.71428 17.7143 8.26427 17.7143 7.74998C17.7143 7.2357 17.2643 6.78568 16.75 6.78568H14.5V6.14286H16.1071C16.6214 6.14286 17.0714 5.69284 17.0714 5.17855C17.0714 4.66427 16.6214 4.21425 16.1071 4.21425H13.8571V3.57143H14.8214C15.3357 3.57143 15.7857 3.12141 15.7857 2.60713C15.7857 2.09284 15.3357 1.64282 14.8214 1.64282H12.4429H6.14286C6.14286 1.64282 6.14286 9.99997 6.14286 11.2857C7.10716 11.2857 7.94286 11.9285 7.94286 11.9285C8.52145 12.3143 9.1643 12.8285 9.61432 13.6643C10.5786 15.5929 9.42141 18.3571 11.2857 18.3571C13.2143 18.3571 13.4714 15.2072 12.8928 11.9286L12.7643 11.2857H17.3928C17.9071 11.2857 18.3571 10.8357 18.3571 10.3214C18.3571 9.80713 17.9071 9.35714 17.3929 9.35714Z" fill="#FA4242"/>
<path fill-rule="evenodd" clip-rule="evenodd" d="M12.8925 11.9286C13.471 15.2072 13.2139 18.3571 11.2853 18.3571C10.1799 18.3571 10.1368 17.3853 10.0838 16.1921C10.0474 15.3729 10.0064 14.4493 9.61393 13.6643C9.16391 12.8285 8.52106 12.3143 7.94247 11.9285C7.94247 11.9285 7.10677 11.2857 6.14247 11.2857V1.64283H14.8211C15.3353 1.64283 15.7854 2.09284 15.7854 2.60713C15.7854 3.12141 15.3353 3.57143 14.8211 3.57143H13.8568V4.21425H16.1067C16.621 4.21425 17.071 4.66427 17.071 5.17856C17.071 5.69284 16.621 6.14286 16.1067 6.14286H14.4996V6.78568H16.7496C17.2639 6.78568 17.7139 7.2357 17.7139 7.74998C17.7139 8.26427 17.2639 8.71429 16.7496 8.71429H15.1425V9.35714H17.3925C17.9067 9.35714 18.3568 9.80713 18.3568 10.3214C18.3568 10.8357 17.9067 11.2857 17.3925 11.2857H12.7639L12.8925 11.9286ZM6.12453 12.3286H2.28532C1.35725 12.3286 0.599609 11.5709 0.599609 10.6429V2.28572C0.599609 1.35768 1.35724 0.6 2.28532 0.6H14.8211C15.942 0.6 16.8282 1.48621 16.8282 2.60713C16.8282 2.84514 16.7885 3.06445 16.7193 3.26402C17.5341 3.51881 18.1139 4.2719 18.1139 5.17856C18.1139 5.50203 18.0404 5.82509 17.8941 6.12256C18.4358 6.49453 18.7568 7.09336 18.7568 7.74998C18.7568 8.06959 18.685 8.3888 18.5421 8.68332C19.0525 9.02835 19.3996 9.62947 19.3996 10.3214C19.3996 11.4423 18.5134 12.3285 17.3925 12.3285H14.0155C14.2685 13.8381 14.3116 15.4583 14.005 16.7613C13.8352 17.4829 13.5509 18.1384 13.1055 18.619C12.6494 19.1111 12.0415 19.4 11.2853 19.4C10.5555 19.4 10.0257 19.1758 9.67912 18.7349C9.3545 18.322 9.24178 17.7785 9.18419 17.2602C9.15473 16.9951 9.13813 16.7165 9.12192 16.4435L9.12159 16.4378C9.10528 16.1631 9.0892 15.8922 9.06134 15.6242C9.00495 15.0817 8.90325 14.5881 8.68237 14.174C8.2169 13.3012 7.56753 12.8415 7.03617 12.5974C6.76912 12.4747 6.53175 12.4066 6.36349 12.3694C6.27954 12.3508 6.21339 12.3401 6.17012 12.3341C6.14946 12.3313 6.13408 12.3296 6.12453 12.3286ZM13.5353 11.9285C13.5618 12.0609 13.5866 12.1943 13.6098 12.3285C14.1479 15.454 13.7509 19 11.2853 19C9.67438 19 9.60249 17.7889 9.52064 16.41C9.47184 15.5879 9.4195 14.7061 9.03531 13.9857C8.00674 12.0571 6.14247 11.9286 6.14247 11.9286H2.28532C1.57816 11.9286 0.999609 11.35 0.999609 10.6429V2.28572C0.999609 1.57859 1.57816 1 2.28532 1H14.8211C15.7211 1 16.4282 1.70713 16.4282 2.60713C16.4282 2.8182 16.3897 3.01002 16.3232 3.18259C16.2682 3.32537 16.1941 3.45499 16.1068 3.57143C16.2604 3.57143 16.4083 3.59203 16.5481 3.63066C17.2275 3.8184 17.7139 4.43214 17.7139 5.17856C17.7139 5.43469 17.6572 5.69083 17.5438 5.92815C17.4864 6.04821 17.4146 6.16344 17.3282 6.27143C17.4578 6.32329 17.5771 6.38823 17.6847 6.46414C18.1109 6.76457 18.3568 7.2368 18.3568 7.74998C18.3568 8.00497 18.3006 8.25994 18.1882 8.49636C18.1306 8.61757 18.0582 8.73391 17.971 8.84286C18.0998 8.88577 18.2222 8.94779 18.3347 9.02608C18.7276 9.29958 18.9996 9.77165 18.9996 10.3214C18.9996 11.2214 18.2925 11.9285 17.3925 11.9285H13.5353ZM6.54247 2.04283H14.8211C15.1144 2.04283 15.3854 2.31376 15.3854 2.60713C15.3854 2.9005 15.1144 3.17143 14.8211 3.17143H13.4568V4.61425H16.1067C16.4001 4.61425 16.671 4.88518 16.671 5.17856C16.671 5.47193 16.4001 5.74286 16.1067 5.74286H14.0996V7.18568H16.7496C17.043 7.18568 17.3139 7.45661 17.3139 7.74998C17.3139 8.04336 17.043 8.31429 16.7496 8.31429H14.7425V9.75714H17.3925C17.6858 9.75714 17.9568 10.0281 17.9568 10.3214C17.9568 10.6148 17.6858 10.8857 17.3925 10.8857H12.276L12.4993 12.0025C12.7841 13.6186 12.8558 15.1687 12.6364 16.2959C12.5265 16.8607 12.3501 17.2841 12.123 17.559C11.9082 17.8191 11.6411 17.9571 11.2853 17.9571C11.1014 17.9571 10.9838 17.9232 10.9062 17.8817C10.8313 17.8418 10.7709 17.7829 10.7188 17.6935C10.6021 17.4935 10.5434 17.1744 10.5112 16.7064C10.5006 16.5534 10.4929 16.3808 10.4846 16.1977C10.4699 15.8709 10.4537 15.5108 10.4175 15.169C10.3589 14.6166 10.2432 14.0285 9.9717 13.4854L9.96628 13.4745C9.4738 12.56 8.77338 12.0027 8.1737 11.602L8.17094 11.5999C8.16256 11.5937 8.15099 11.5852 8.13639 11.5749C8.10721 11.5541 8.06584 11.5256 8.01368 11.492C7.90961 11.4248 7.76109 11.3362 7.57945 11.2476C7.30785 11.1151 6.94762 10.9755 6.54247 10.9157V2.04283ZM2.28532 2.04286H5.09961V10.8857H2.28532C2.18337 10.8857 2.12948 10.8535 2.1021 10.8261C2.07471 10.7987 2.04247 10.7448 2.04247 10.6429V2.28572C2.04247 2.25509 2.06181 2.19099 2.1262 2.12659C2.1906 2.06219 2.25471 2.04286 2.28532 2.04286ZM5.49961 1.64286V11.2857H2.28532C1.89961 11.2857 1.64247 11.0286 1.64247 10.6429V2.28572C1.64247 1.96427 1.96391 1.64286 2.28532 1.64286H5.49961Z" fill="#FA4242"/>
</svg>
