<svg width="20" height="15" viewBox="0 0 20 15" fill="none" xmlns="http://www.w3.org/2000/svg">
<path fill-rule="evenodd" clip-rule="evenodd" d="M2.80114 1.16715C2.4126 1.16715 2.0573 1.30038 1.77798 1.52248L9.51223 7.54191L17.2465 1.52247C16.9672 1.30038 16.6119 1.16715 16.2233 1.16715H2.80114ZM17.839 2.54029L9.87929 8.73521C9.77386 8.82064 9.64357 8.86488 9.51223 8.86498C9.42279 8.86505 9.33286 8.84464 9.24994 8.80283C9.2131 8.78433 9.17795 8.76177 9.14519 8.73523L1.18546 2.5403C1.17339 2.6195 1.16715 2.70054 1.16715 2.78296V12.2171C1.16715 13.1057 1.89339 13.8329 2.80114 13.8329H16.2233C17.1581 13.8329 17.8984 13.0865 17.858 12.245L17.8573 12.2311V2.78296C17.8573 2.70053 17.8511 2.61949 17.839 2.54029ZM0 2.78296C0 1.24071 1.25788 0 2.80114 0H16.2233C17.7666 0 19.0245 1.24071 19.0245 2.78296V12.2039C19.0916 13.7861 17.7348 15 16.2233 15H2.80114C1.25789 15 0 13.7593 0 12.2171V2.78296Z" fill="#34A1D3"/>
</svg>
