<svg width="16" height="16" viewBox="0 0 16 16" fill="none" xmlns="http://www.w3.org/2000/svg">
<path d="M10.14 13.38C11.7133 13.38 13.0333 12.82 14.1 11.7L15.38 12.96C14.7533 13.68 13.98 14.2267 13.06 14.6C12.14 14.9733 11.1333 15.16 10.04 15.16C8.88 15.16 7.80667 14.9467 6.82 14.52C5.83333 14.08 5 13.4667 4.32 12.68C3.64 11.8933 3.16 10.98 2.88 9.94H0.6V8.82H2.68C2.65333 8.47333 2.64 8.2 2.64 8C2.64 7.8 2.65333 7.52667 2.68 7.18H0.6V6.06H2.88C3.16 5.02 3.64 4.10667 4.32 3.32C5 2.53333 5.83333 1.92667 6.82 1.5C7.80667 1.06 8.88 0.84 10.04 0.84C11.1467 0.84 12.1533 1.02667 13.06 1.4C13.98 1.77333 14.7533 2.31333 15.38 3.02L14.1 4.28C13.0467 3.17333 11.7267 2.62 10.14 2.62C8.92667 2.62 7.86 2.93333 6.94 3.56C6.02 4.18667 5.37333 5.02 5 6.06H11.34V7.18H4.72C4.68 7.43333 4.66 7.70667 4.66 8C4.66 8.28 4.68 8.55333 4.72 8.82H11.34V9.94H5C5.37333 10.98 6.02 11.8133 6.94 12.44C7.86 13.0667 8.92667 13.38 10.14 13.38Z" fill="#34A1D3"/>
</svg>
