<svg width="16" height="25" viewBox="0 0 16 25" fill="none" xmlns="http://www.w3.org/2000/svg">
<path d="M15 5.3614H15.25V5.1114V1.00253V0.75253H15H10.8461C10.6411 0.744537 9.4666 0.725569 8.19364 1.23177C6.90129 1.74569 5.50447 2.80397 4.93 4.94476C4.8831 5.07772 4.57737 6.02302 4.55412 8.07451L0.999272 8.08486L0.75 8.08558V8.33486V12.6445V12.8952L1.00073 12.8945L4.55767 12.8842V24V24.25H4.80767H10.6238H10.8738V24V12.8931H14.4733H14.7233V12.6431V8.32236V8.07236H14.4733H10.8738V6.96285C10.8738 6.57038 10.9587 6.1766 11.2103 5.88303C11.4556 5.59684 11.898 5.3614 12.7113 5.3614H15ZM10.7996 2.19799L13.7876 2.19886V3.91499H12.7113C11.5302 3.91499 10.6952 4.29671 10.1579 4.88868C9.62524 5.4756 9.41138 6.24029 9.41138 6.96285V9.26877V9.51877H9.66138H13.2609V11.4467H9.66138H9.41138V11.6967V22.8036H6.02005V11.6842V11.4335L5.76932 11.4342L2.21238 11.4446V9.52775L5.78064 9.5174L6.03508 9.51666L6.02986 9.26227L6.02 8.78098L6.02 8.78096C5.97159 6.4299 6.30574 5.43368 6.32369 5.38016C6.324 5.37925 6.32421 5.37862 6.32433 5.37825L6.32466 5.37836L6.32806 5.36563C6.7762 3.68819 7.84694 2.90133 8.82878 2.52692C9.82146 2.14838 10.7223 2.19383 10.7849 2.19755L10.7922 2.19799L10.7996 2.19799Z" fill="#34A1D3" stroke="#34A1D3" stroke-width="0.5"/>
</svg>
