<svg width="30" height="24" viewBox="0 0 30 24" fill="none" xmlns="http://www.w3.org/2000/svg">
<path d="M14.9998 23.925C14.629 23.9259 14.2616 23.8535 13.9189 23.7119C13.5762 23.5703 13.2649 23.3624 13.0029 23.1L3.34664 13.4437C2.58383 12.6726 1.9821 11.7575 1.5765 10.7515C1.17089 9.74554 0.969531 8.66892 0.98414 7.58437C0.99149 6.59047 1.19485 5.60778 1.58258 4.6926C1.9703 3.77741 2.53477 2.94771 3.24365 2.25102C3.95254 1.55433 4.7919 1.00434 5.71367 0.632551C6.63545 0.26076 7.62151 0.0744753 8.61539 0.0843677C9.62706 0.0741773 10.6305 0.267251 11.5661 0.652139C12.5018 1.03703 13.3506 1.60589 14.0623 2.32499L14.9998 3.26249L15.7685 2.49374C17.0959 1.13115 18.8722 0.295786 20.7683 0.142375C22.6644 -0.011036 24.5518 0.527902 26.081 1.65937C26.9515 2.32973 27.6692 3.17785 28.1863 4.14727C28.7033 5.11668 29.0079 6.18514 29.0798 7.28148C29.1516 8.37782 28.9891 9.47689 28.6029 10.5055C28.2168 11.5341 27.6159 12.4686 26.8404 13.2469L16.9966 23.1C16.7346 23.3624 16.4233 23.5703 16.0806 23.7119C15.7379 23.8535 15.3706 23.9259 14.9998 23.925ZM8.57789 1.94999C7.08775 1.94847 5.65548 2.52676 4.58414 3.56249C4.03795 4.088 3.6036 4.71848 3.30717 5.41605C3.01074 6.11363 2.85834 6.86392 2.85914 7.62187C2.85092 8.4556 3.00828 9.28267 3.32209 10.0551C3.63591 10.8276 4.09993 11.5301 4.68727 12.1219L14.3435 21.7781C14.4307 21.866 14.5344 21.9357 14.6486 21.9833C14.7628 22.0309 14.8854 22.0554 15.0091 22.0554C15.1329 22.0554 15.2554 22.0309 15.3697 21.9833C15.4839 21.9357 15.5876 21.866 15.6748 21.7781L25.5279 11.9156C26.1063 11.325 26.5531 10.6187 26.8391 9.84318C27.1251 9.06761 27.2437 8.2403 27.1873 7.41562C27.1372 6.58248 26.9077 5.76999 26.5145 5.03376C26.1213 4.29753 25.5737 3.65495 24.9091 3.14999C23.743 2.29021 22.3041 1.88367 20.8604 2.00613C19.4168 2.12859 18.0669 2.77169 17.0623 3.81562L15.6654 5.24999C15.5782 5.33786 15.4745 5.40761 15.3603 5.4552C15.2461 5.5028 15.1235 5.5273 14.9998 5.5273C14.876 5.5273 14.7535 5.5028 14.6392 5.4552C14.525 5.40761 14.4213 5.33786 14.3341 5.24999L12.7404 3.65624C11.6427 2.56806 10.1611 1.95521 8.61539 1.94999H8.57789Z" fill="#FA4242"/>
</svg>
