<svg width="15" height="15" viewBox="0 0 15 15" fill="none" xmlns="http://www.w3.org/2000/svg">
<path d="M14.8506 12.6868L11.8655 9.70166L13.9951 8.47151C14.1616 8.37535 14.2584 8.19267 14.2445 8.001C14.2307 7.80929 14.1087 7.64237 13.9301 7.57121L4.43357 3.78308C4.24736 3.70874 4.03483 3.75253 3.89307 3.89424C3.7513 4.03606 3.70751 4.24859 3.7818 4.43475L7.56938 13.9324C7.64059 14.1108 7.80751 14.233 7.99923 14.2468C8.19094 14.2607 8.37362 14.1638 8.46973 13.9974L9.69968 11.8678L12.6846 14.853C12.7787 14.9471 12.9063 14.9999 13.0393 14.9999C13.1724 14.9999 13.2999 14.9471 13.394 14.853L14.8506 13.3962C15.0465 13.2003 15.0465 12.8827 14.8506 12.6868ZM13.0393 13.789L9.94695 10.6963C9.85221 10.6016 9.72438 10.5493 9.59226 10.5493C9.57054 10.5493 9.54862 10.5507 9.52685 10.5536C9.37216 10.5739 9.23579 10.665 9.15786 10.8001L8.11827 12.6002L5.1461 5.14753L12.5981 8.1201L10.7978 9.15989C10.6628 9.23782 10.5717 9.37418 10.5513 9.52888C10.531 9.68343 10.5837 9.83868 10.694 9.94898L13.7865 13.0417L13.0393 13.789Z" fill="#34A1D3"/>
<path d="M2.20213 1.49252C2.00617 1.29676 1.6887 1.29676 1.49264 1.49252C1.29673 1.68848 1.29673 2.00606 1.49264 2.20202L2.60723 3.31662C2.70516 3.41449 2.8336 3.46354 2.96198 3.46354C3.09031 3.46354 3.21865 3.41449 3.31668 3.31662C3.51254 3.12071 3.51254 2.80308 3.31668 2.60717L2.20213 1.49252Z" fill="#34A1D3"/>
<path d="M2.5796 4.96035C2.5796 4.68333 2.35495 4.45879 2.07793 4.45879H0.501667C0.224697 4.45879 0 4.68328 0 4.96035C0 5.23732 0.224646 5.46197 0.501667 5.46197H2.07793C2.35495 5.46192 2.5796 5.23732 2.5796 4.96035Z" fill="#34A1D3"/>
<path d="M2.3769 6.50859L1.2622 7.62329C1.06624 7.81909 1.06624 8.13672 1.2622 8.33263C1.36013 8.43056 1.48842 8.47955 1.6169 8.47955C1.74523 8.47955 1.87357 8.43056 1.9715 8.33263L3.08624 7.21798C3.28215 7.02212 3.28215 6.70445 3.08624 6.50859C2.89044 6.31273 2.57286 6.31273 2.3769 6.50859Z" fill="#34A1D3"/>
<path d="M4.96055 2.5797C5.23752 2.5797 5.46217 2.35505 5.46217 2.07803V0.501616C5.46217 0.224646 5.23757 0 4.96055 0C4.68353 0 4.45898 0.224596 4.45898 0.501616V2.07808C4.45898 2.35505 4.68348 2.5797 4.96055 2.5797Z" fill="#34A1D3"/>
<path d="M6.86291 3.23258C6.99139 3.23258 7.11973 3.18369 7.21766 3.08571L8.3322 1.97111C8.52816 1.7752 8.52816 1.45758 8.3322 1.26172C8.13634 1.06581 7.81862 1.06581 7.62286 1.26172L6.50826 2.37631C6.31235 2.57217 6.31235 2.88985 6.50826 3.08571C6.60619 3.18369 6.73457 3.23258 6.86291 3.23258Z" fill="#34A1D3"/>
</svg>
