<?xml version="1.0" encoding="iso-8859-1"?>
<!-- Generator: Adobe Illustrator 19.0.0, SVG Export Plug-In . SVG Version: 6.00 Build 0)  -->
<svg version="1.1" id="Capa_1" xmlns="http://www.w3.org/2000/svg" xmlns:xlink="http://www.w3.org/1999/xlink" x="0px" y="0px"
	 viewBox="0 0 512 512" style="enable-background:new 0 0 512 512;" xml:space="preserve">
<g>
	<g>
		<path d="M467,60h-15V45c0-24.813-20.187-45-45-45H75C50.187,0,30,20.187,30,45v15H15C6.716,60,0,66.716,0,75s6.716,15,15,15h15v15
			c0,24.813,20.187,45,45,45h332c24.813,0,45-20.187,45-45V90h15c8.271,0,15,6.729,15,15v90c0,8.271-6.729,15-15,15H286
			c-24.813,0-45,20.187-45,45v15h-15c-7.475,0-13.81,5.504-14.853,12.906c-0.474,3.362-21.037,149.213-21.511,152.576
			C183.867,475.868,215.246,512,256,512c40.84,0,72.12-36.23,66.368-76.491c-0.474-3.365-21.041-149.242-21.515-152.603
			C299.81,275.504,293.476,270,286,270h-15v-15c0-8.271,6.729-15,15-15h181c24.813,0,45-20.187,45-45v-90
			C512,80.187,491.813,60,467,60z M422,105c0,8.271-6.729,15-15,15H75c-8.271,0-15-6.729-15-15V45c0-8.271,6.729-15,15-15h332
			c8.271,0,15,6.729,15,15V105z M292.665,439.725C295.853,462.038,278.516,482,256,482c-22.519,0-39.854-19.957-36.662-42.303
			L230.574,360h50.851L292.665,439.725z M272.966,300l4.23,30h-42.392l4.229-30H272.966z"/>
	</g>
</g>
<g>
</g>
<g>
</g>
<g>
</g>
<g>
</g>
<g>
</g>
<g>
</g>
<g>
</g>
<g>
</g>
<g>
</g>
<g>
</g>
<g>
</g>
<g>
</g>
<g>
</g>
<g>
</g>
<g>
</g>
</svg>
