<svg width="13" height="21" viewBox="0 0 13 21" fill="none" xmlns="http://www.w3.org/2000/svg">
<path fill-rule="evenodd" clip-rule="evenodd" d="M2.54688 0.90625C2.00401 0.90625 1.48338 1.1219 1.09952 1.50577C0.715652 1.88963 0.5 2.41026 0.5 2.95312V18.0469C0.5 18.5897 0.715652 19.1104 1.09952 19.4942C1.48338 19.8781 2.00401 20.0938 2.54688 20.0938H10.4531C10.7219 20.0938 10.9881 20.0408 11.2364 19.9379C11.4848 19.8351 11.7104 19.6843 11.9005 19.4942C12.0906 19.3042 12.2413 19.0785 12.3442 18.8302C12.4471 18.5818 12.5 18.3157 12.5 18.0469V2.95312C12.5 2.68433 12.4471 2.41816 12.3442 2.16982C12.2413 1.92148 12.0906 1.69584 11.9005 1.50577C11.7104 1.3157 11.4848 1.16492 11.2364 1.06206C10.9881 0.959194 10.7219 0.90625 10.4531 0.90625H2.54688ZM1.9613 2.36755C2.11661 2.21225 2.32724 2.125 2.54688 2.125H10.4531C10.6728 2.125 10.8834 2.21225 11.0387 2.36755C11.194 2.52286 11.2812 2.73349 11.2812 2.95312V18.0469C11.2812 18.2665 11.194 18.4771 11.0387 18.6324C10.8834 18.7878 10.6728 18.875 10.4531 18.875H2.54688C2.32724 18.875 2.11661 18.7878 1.9613 18.6324C1.806 18.4771 1.71875 18.2665 1.71875 18.0469V2.95312C1.71875 2.73349 1.806 2.52286 1.9613 2.36755ZM11.0625 3.78125H1.9375V16.5H11.0625V3.78125ZM3.15625 15.2812V5H9.84375V15.2812H3.15625ZM6.5 16.7188C5.96497 16.7188 5.53125 17.1525 5.53125 17.6875C5.53125 18.2225 5.96497 18.6562 6.5 18.6562C7.03503 18.6562 7.46875 18.2225 7.46875 17.6875C7.46875 17.1525 7.03503 16.7188 6.5 16.7188ZM8.1875 2.34375H4.8125V3.5625H8.1875V2.34375Z" fill="#FA4242"/>
</svg>
