<svg id="Capa_1" enable-background="new 0 0 511.212 511.212" height="512" viewBox="0 0 511.212 511.212" width="512" xmlns="http://www.w3.org/2000/svg"><g><path d="m368.46 122.439c5.064-12.267 7.73-25.525 7.73-39.197 0-27.438-10.685-53.234-30.087-72.636l-10.606-10.606-79.891 79.891-79.891-79.891-10.607 10.606c-19.401 19.401-30.086 45.197-30.086 72.636 0 13.672 2.666 26.93 7.73 39.198h-102.851v15c0 56.641 46.081 102.722 102.722 102.722h67.983v91.203h-77.719l24.004 179.847h197.43l24.004-179.847h-77.719v-91.203h67.983c56.641 0 102.722-46.081 102.722-102.723v-15zm-34.052-78.924c7.669 11.711 11.782 25.403 11.782 39.728 0 14.269-4.096 27.902-11.707 39.582-33.39 2.861-62.27 21.758-78.877 48.94-3.073-5.03-6.569-9.775-10.433-14.189 1.271-16.729 8.274-33.099 21.04-45.865zm-63.802 287.85h-30v-91.203h30zm-93.803-287.85 58.378 58.378c-7.738 10.406-13.256 21.949-16.547 33.986-12.56-7.167-26.77-11.757-41.907-13.054-7.611-11.68-11.706-25.314-11.706-39.582.001-14.325 4.114-28.017 11.782-39.728zm-105.347 108.924h96.428c34.959 0 64.236 24.794 71.167 57.723h-96.428c-34.959 0-64.236-24.794-71.167-57.723zm111.697 328.773-7.988-59.847h160.882l-7.988 59.847zm156.898-89.847h-168.89l-4.004-30h176.898zm28.538-181.203h-96.428c6.931-32.929 36.207-57.723 71.166-57.723l96.428.001c-6.93 32.928-36.207 57.722-71.166 57.722z"/></g></svg>