<svg id="Layer_1" enable-background="new 0 0 512 512" height="512" viewBox="0 0 512 512" width="512" xmlns="http://www.w3.org/2000/svg"><g><path d="m497 168.7h-49.267v-97.467c0-8.284-6.716-15-15-15h-417.733c-8.284 0-15 6.716-15 15v257.067c0 8.284 6.716 15 15 15h49.267v97.467c0 8.284 6.716 15 15 15h417.733c8.284 0 15-6.716 15-15v-257.067c0-8.284-6.716-15-15-15zm-467-82.467h291.333v25.167c0 8.284 6.716 15 15 15s15-6.716 15-15v-25.167h66.4v227.067h-66.4v-25.167c0-8.284-6.716-15-15-15s-15 6.716-15 15v25.167h-291.333zm452 339.534h-66.4v-25.167c0-8.284-6.716-15-15-15s-15 6.716-15 15v25.167h-291.333v-82.467h125.52l-22.594 22.594c-5.858 5.858-5.858 15.355 0 21.213 5.857 5.858 15.355 5.858 21.213 0l43.806-43.806h170.521c8.284 0 15-6.716 15-15v-129.601h34.267z"/><path d="m336.333 238.867c8.284 0 15-6.716 15-15v-48.2c0-8.284-6.716-15-15-15s-15 6.716-15 15v48.2c0 8.284 6.716 15 15 15z"/><path d="m84.727 226.439c5.857 5.858 15.355 5.858 21.213 0l11.673-11.673h53.974l-38.66 38.66c-5.858 5.858-5.858 15.355 0 21.213 5.857 5.858 15.355 5.858 21.213 0l59.873-59.873h41.987c8.284 0 15-6.716 15-15s-6.716-15-15-15h-41.987l-59.873-59.873c-5.857-5.858-15.355-5.858-21.213 0s-5.858 15.355 0 21.213l38.66 38.66h-53.974l-11.673-11.673c-5.857-5.858-15.355-5.858-21.213 0s-5.858 15.355 0 21.213l5.46 5.46-5.46 5.46c-5.858 5.858-5.858 15.356 0 21.213z"/></g></svg>