<svg id="Capa_1" enable-background="new 0 0 511.961 511.961" height="512" viewBox="0 0 511.961 511.961" width="512" xmlns="http://www.w3.org/2000/svg"><g><path d="m511.959 291.756c-.246-58.693-23.572-102.953-54.259-102.953-14.182 0-29.468 8.395-48.821 19.023-23.678 13.003-53.146 29.187-82.936 29.187-30.119 0-55.417-15.251-66-27.78 25.291-22.66 40.057-55.123 40.057-89.208 0-66.168-53.832-120-120-120-55.813 0-102.848 38.301-116.203 90h-48.797c-8.284 0-15 6.716-15 15 0 41.355 33.645 75 75 75h1.105c2.592 4.455 5.471 8.765 8.652 12.892-69.429 59.35-83.655 176.536-6.315 253.232 41.626 41.279 103.539 65.789 165.98 65.787.663 0 1.332-.003 1.994-.008 48.092-.402 90.881-7.699 127.178-21.686 89.076-34.327 138.734-110.153 138.365-198.486zm-479.389-171.731h27.43c0 9.725 1.167 19.266 3.409 28.478-14.358-3.832-25.916-14.595-30.839-28.478zm213.596 361.904c-.591.005-1.172.007-1.763.007-54.684-.002-108.717-21.27-144.836-57.089-28.21-27.975-43.121-62.431-43.121-99.643v-.478c-.027-28.462 7.571-81.572 58.76-117.489 3.649-2.561 5.971-6.612 6.334-11.055s-1.268-8.818-4.453-11.938c-57.584-56.418-17.157-154.219 62.913-154.219 49.626 0 90 40.374 90 90 0 28.895-14.207 56.261-38.002 73.205-5.252 3.74-7.527 10.416-5.65 16.584 8.229 27.054 51.157 57.199 99.596 57.199 37.485 0 70.693-18.237 97.377-32.891 13.075-7.18 27.895-15.319 34.38-15.319 6.156 0 24.059 25.127 24.259 73.078.379 90.918-61.364 188.588-235.794 190.048z"/><circle cx="135" cy="105.025" r="15"/><path d="m354.188 344.654c1.233-3.844.864-8.024-1.022-11.593-15.43-29.181-53.962-48.036-98.165-48.036-26.969 0-52.524 7.136-71.96 20.093-21.307 14.204-33.041 33.703-33.041 54.907s11.734 40.703 33.04 54.907c19.436 12.957 44.991 20.093 71.96 20.093 44.204 0 82.735-18.855 98.165-48.037 1.887-3.569 2.256-7.748 1.022-11.593-1.233-3.844-3.964-7.029-7.575-8.835l-13.071-6.536 13.071-6.536c3.612-1.804 6.342-4.99 7.576-8.834zm-99.188 60.371c-40.654 0-75-20.607-75-45 0-24.392 34.346-45 75-45 24.694 0 47.777 7.753 61.698 19.88l-23.406 11.703c-5.082 2.541-8.292 7.735-8.292 13.417s3.21 10.875 8.292 13.417l23.407 11.704c-13.922 12.126-37.005 19.879-61.699 19.879z"/></g></svg>