<svg width="20" height="20" viewBox="0 0 20 20" fill="none" xmlns="http://www.w3.org/2000/svg">
<g clip-path="url(#clip0_267_46)">
<path d="M17.1435 6.42846H13.5721C13.1776 6.42846 12.8578 6.74826 12.8578 7.14277C12.8578 7.53727 13.1776 7.85707 13.5721 7.85707H17.1435C17.538 7.85707 17.8578 8.17687 17.8578 8.57138V17.8572C17.8578 18.2517 17.538 18.5715 17.1435 18.5715H2.85772C2.46321 18.5715 2.14341 18.2517 2.14341 17.8572V8.57134C2.14341 8.17683 2.46321 7.85703 2.85772 7.85703H6.42916C6.82367 7.85703 7.14346 7.53723 7.14346 7.14273C7.14346 6.74822 6.82367 6.42842 6.42916 6.42842H2.85772C1.67424 6.42842 0.714844 7.38782 0.714844 8.57129V17.8571C0.714844 19.0406 1.67424 20 2.85772 20H17.1435C18.327 20 19.2864 19.0406 19.2864 17.8571V8.57134C19.2864 7.38786 18.327 6.42846 17.1435 6.42846Z" fill="#FA4242"/>
<path d="M14.077 3.78059L10.5056 0.20915C10.2267 -0.0697166 9.77452 -0.0697166 9.49561 0.20915L5.92413 3.78059C5.65008 4.06436 5.65795 4.51654 5.94171 4.79059C6.21853 5.05795 6.65735 5.05795 6.93417 4.79059L9.28635 2.43841V14.2857C9.28635 14.6802 9.60615 15 10.0007 15C10.3952 15 10.715 14.6802 10.715 14.2857V2.43845L13.0671 4.79063C13.3509 5.06468 13.8031 5.05682 14.0771 4.77305C14.3444 4.49624 14.3444 4.05741 14.077 3.78059Z" fill="#FA4242"/>
</g>
<defs>
<clipPath id="clip0_267_46">
<rect width="20" height="20" fill="white"/>
</clipPath>
</defs>
</svg>
