<svg id="Capa_1" enable-background="new 0 0 512 512" height="512" viewBox="0 0 512 512" width="512" xmlns="http://www.w3.org/2000/svg"><g><path d="m386.092 115.846c0-30.767-25.031-55.798-55.798-55.798h-29.27v-60.048h-90.049v60.048h-29.27c-30.767 0-55.798 25.031-55.798 55.798v124.68l16.988 25.482-16.988 25.482v220.51h260.184v-220.51l-16.988-25.482 16.988-25.482v-124.68zm-145.116-85.846h30.049v30.048h-30.049zm-59.27 60.048h148.588c14.225 0 25.798 11.573 25.798 25.798v4.25h-200.184v-4.25c0-14.225 11.573-25.798 25.798-25.798zm174.386 210.525v181.427h-200.184v-181.427l23.043-34.565-23.043-34.565v-81.346h200.184v81.346l-23.043 34.565z"/></g></svg>