<svg id="Capa_1" enable-background="new 0 0 546.55 546.55" height="512" viewBox="0 0 546.55 546.55" width="512" xmlns="http://www.w3.org/2000/svg"><path id="path-1_59_" d="m392.833 341.594c-28.255 0-51.239 22.984-51.239 51.239s22.984 51.239 51.239 51.239 51.239-22.984 51.239-51.239-22.984-51.239-51.239-51.239zm0 68.319c-9.424 0-17.08-7.656-17.08-17.08s7.656-17.08 17.08-17.08 17.08 7.656 17.08 17.08-7.656 17.08-17.08 17.08z" transform="translate(10 10)"/><path id="path-1_58_" d="m153.717 341.594c-28.255 0-51.239 22.984-51.239 51.239s22.984 51.239 51.239 51.239 51.239-22.984 51.239-51.239-22.984-51.239-51.239-51.239zm0 68.319c-9.424 0-17.08-7.656-17.08-17.08s7.656-17.08 17.08-17.08 17.08 7.656 17.08 17.08-7.656 17.08-17.08 17.08z" transform="translate(3 10)"/><path d="m529.47 102.478h-17.08v-17.08c.001-47.086-38.312-85.398-85.398-85.398h-307.434c-47.086 0-85.399 38.312-85.399 85.398v17.08h-17.079c-9.441 0-17.08 7.639-17.08 17.08v102.478c0 9.441 7.639 17.08 17.08 17.08h17.08v222.036c0 22.238 14.321 41.019 34.159 48.093v20.226c0 9.44 7.639 17.08 17.08 17.08h68.319c9.441 0 17.08-7.639 17.08-17.08v-17.08h204.956v17.08c0 9.44 7.639 17.08 17.08 17.08h68.319c9.441 0 17.08-7.639 17.08-17.08v-20.226c19.838-7.074 34.159-25.855 34.159-48.093v-222.036h17.08c9.441 0 17.08-7.639 17.08-17.08v-102.478c-.002-9.441-7.641-17.08-17.082-17.08zm-102.478-68.319c28.255 0 51.239 22.984 51.239 51.239v187.877h-187.876v-239.116zm-307.434 0h136.637v239.116h-187.876v-187.877c0-28.254 22.984-51.239 51.239-51.239zm341.594 444.072h-375.754c-9.424 0-17.08-7.656-17.08-17.08v-153.717h409.913v153.717c0 9.424-7.656 17.08-17.079 17.08z"/></svg>