<svg width="17" height="18" viewBox="0 0 17 18" fill="none" xmlns="http://www.w3.org/2000/svg">
<path d="M15.1738 0H1.82617C0.819221 0 0 0.84747 0 1.88914V17.071C0 17.3555 0.222992 17.5862 0.498047 17.5862H5.14648C5.42154 17.5862 5.64453 17.3555 5.64453 17.071V14.3231C5.64453 14.0386 5.42154 13.8079 5.14648 13.8079H0.996094V3.77829H16.502C16.777 3.77829 17 3.54761 17 3.26307V1.88914C17 0.84747 16.1808 0 15.1738 0ZM4.64844 14.8384V16.5558H0.996094V14.8384H4.64844ZM16.0039 2.74784H0.996094V1.88914C0.996094 1.41566 1.36847 1.03044 1.82617 1.03044H15.1738C15.6315 1.03044 16.0039 1.41566 16.0039 1.88914V2.74784Z" fill="#34A1D3"/>
<path d="M15.5059 4.87743H8.20117C7.3773 4.87743 6.70703 5.57081 6.70703 6.42309V13.9797C6.70703 14.6513 7.12343 15.224 7.70312 15.4367V16.384C7.70312 17.0469 8.22445 17.5862 8.86523 17.5862H9.5293C10.1701 17.5862 10.6914 17.0469 10.6914 16.384V15.5253H13.0156V16.384C13.0156 17.0469 13.5369 17.5862 14.1777 17.5862H14.8418C15.4826 17.5862 16.0039 17.0469 16.0039 16.384V15.4367C16.5836 15.224 17 14.6513 17 13.9797V6.42309C17 5.57081 16.3297 4.87743 15.5059 4.87743ZM9.69531 16.384C9.69531 16.4787 9.62084 16.5558 9.5293 16.5558H8.86523C8.77369 16.5558 8.69922 16.4787 8.69922 16.384V15.5253H9.69531V16.384ZM10.4493 14.4949L10.6153 13.4644H13.0918L13.2578 14.4949H10.4493ZM15.0078 16.384C15.0078 16.4787 14.9333 16.5558 14.8418 16.5558H14.1777C14.0862 16.5558 14.0117 16.4787 14.0117 16.384V15.5253H15.0078V16.384ZM16.0039 12.0905H15.5059C15.2308 12.0905 15.0078 12.3212 15.0078 12.6057C15.0078 12.8903 15.2308 13.121 15.5059 13.121H16.0039V13.9797C16.0039 14.2638 15.7805 14.4949 15.5059 14.4949H14.2676L14.0049 12.8645C13.9649 12.6161 13.7572 12.434 13.5137 12.434H10.1934C9.94988 12.434 9.7421 12.6161 9.70209 12.8645L9.43942 14.4949H8.20117C7.92655 14.4949 7.70312 14.2638 7.70312 13.9797V13.121H8.20117C8.47623 13.121 8.69922 12.8903 8.69922 12.6057C8.69922 12.3212 8.47623 12.0905 8.20117 12.0905H7.70312V10.5882C8.56292 10.8749 10.1297 11.3005 11.8535 11.3005C13.5773 11.3005 15.1441 10.8749 16.0039 10.5882V12.0905ZM16.0039 9.50006C15.3372 9.742 13.6732 10.2701 11.8535 10.2701C10.0397 10.2701 8.37144 9.74152 7.70312 9.49968V7.96875H16.0039V9.50006ZM16.0039 6.93831H7.70312V6.42309C7.70312 6.139 7.92655 5.90787 8.20117 5.90787H15.5059C15.7805 5.90787 16.0039 6.139 16.0039 6.42309V6.93831Z" fill="#34A1D3"/>
</svg>
