<svg id="Layer_1" enable-background="new 0 0 512 512" height="512" viewBox="0 0 512 512" width="512" xmlns="http://www.w3.org/2000/svg"><path d="m488.489 8.542c-5.496-5.508-12.806-8.542-20.585-8.542h-269.485c-5.946 0-11.675 1.792-16.567 5.182l-1.399.97-154.53 169.685c-6.873 5.501-10.921 13.86-10.921 22.741l-.002 124.262c0 7.776 3.024 15.087 8.513 20.582 5.497 5.507 12.807 8.54 20.583 8.54 72.042.001 130.653 58.73 130.653 130.918 0 16.057 13.053 29.12 29.096 29.12h264.055c16.043 0 29.096-13.063 29.096-29.121l.004-453.758c0-7.775-3.024-15.086-8.511-20.579zm-443.489 313.422.002-122.934 1.018-.706 153.29-168.324h267.69l-.003 352.47h-297.446c-29.29-36.64-74.217-60.225-124.551-60.506zm159.747 160.036c-.134-24.91-5.948-48.499-16.208-69.53h278.457v69.53z"/><path d="m438.397 206.235v-136.911c0-8.284-6.716-15-15-15h-196.083c-4.226 0-8.254 1.782-11.097 4.908l-124.517 136.911c-3.995 4.393-5.023 10.729-2.622 16.159 2.402 5.431 7.781 8.933 13.719 8.933h320.601c8.284 0 14.999-6.715 14.999-15zm-30-15h-271.682l97.233-106.911h174.449z"/><path d="m423.397 246.234h-101.946c-8.284 0-15 6.716-15 15 0 35.502 28.883 64.385 64.385 64.385h52.562c8.284 0 15-6.716 15-15v-49.385c-.001-8.284-6.716-15-15.001-15zm-15 49.385h-37.562c-13.586 0-25.356-7.919-30.938-19.385h68.499v19.385z"/></svg>