<svg width="20" height="18" viewBox="0 0 20 18" fill="none" xmlns="http://www.w3.org/2000/svg">
<path d="M15 12.75C14.854 12.7503 14.7124 12.6994 14.6 12.6063L11.775 10.25H10.625C9.29892 10.25 8.02715 9.72322 7.08947 8.78553C6.15178 7.84785 5.625 6.57608 5.625 5.25C5.625 3.92392 6.15178 2.65215 7.08947 1.71447C8.02715 0.776784 9.29892 0.25 10.625 0.25H14.375C15.5895 0.253468 16.7611 0.698838 17.6713 1.50295C18.5814 2.30706 19.1678 3.41494 19.3208 4.61972C19.4739 5.8245 19.1833 7.04382 18.5032 8.04999C17.8231 9.05617 16.8 9.78042 15.625 10.0875V12.125C15.6253 12.2445 15.5913 12.3617 15.5271 12.4625C15.4628 12.5633 15.371 12.6435 15.2625 12.6938C15.1801 12.7313 15.0905 12.7505 15 12.75ZM10.625 1.5C9.63044 1.5 8.67661 1.89509 7.97335 2.59835C7.27009 3.30161 6.875 4.25544 6.875 5.25C6.875 6.24456 7.27009 7.19839 7.97335 7.90165C8.67661 8.60491 9.63044 9 10.625 9H12C12.146 8.99972 12.2876 9.05058 12.4 9.14375L14.375 10.7875V9.575C14.3735 9.42334 14.4272 9.27632 14.5261 9.16133C14.625 9.04634 14.7623 8.97123 14.9125 8.95C15.8361 8.79863 16.6698 8.30735 17.2496 7.57267C17.8295 6.838 18.1137 5.91303 18.0463 4.97951C17.979 4.04599 17.565 3.1714 16.8856 2.52757C16.2063 1.88374 15.3108 1.51721 14.375 1.5H10.625Z" fill="white"/>
<path d="M13.125 4.625H11.875V5.875H13.125V4.625Z" fill="white"/>
<path d="M10 4.625H8.75V5.875H10V4.625Z" fill="white"/>
<path d="M16.25 4.625H15V5.875H16.25V4.625Z" fill="white"/>
<path d="M4.99992 17.75C4.90938 17.7505 4.81981 17.7313 4.73742 17.6937C4.62893 17.6435 4.53712 17.5633 4.47287 17.4625C4.40862 17.3616 4.37463 17.2445 4.37492 17.125V15.0875C3.38047 14.8225 2.49199 14.2572 1.83075 13.4686C1.16951 12.68 0.767721 11.7066 0.680219 10.6811C0.592717 9.65572 0.823764 8.62828 1.34183 7.73904C1.85989 6.84981 2.63973 6.14209 3.57492 5.71249C3.6504 5.67271 3.73323 5.64881 3.8183 5.64226C3.90337 5.6357 3.98888 5.64664 4.06956 5.67439C4.15025 5.70214 4.22439 5.74611 4.28744 5.8036C4.35048 5.86109 4.40108 5.93088 4.43613 6.00867C4.47118 6.08646 4.48993 6.17061 4.49123 6.25592C4.49252 6.34123 4.47634 6.4259 4.44367 6.50472C4.411 6.58354 4.36254 6.65484 4.30127 6.71422C4.24 6.77359 4.16722 6.8198 4.08742 6.84999C3.34988 7.1844 2.7404 7.74858 2.35014 8.45815C1.95988 9.16773 1.8098 9.98458 1.92236 10.7865C2.03492 11.5885 2.40405 12.3325 2.97457 12.9072C3.54508 13.4819 4.28632 13.8565 5.08742 13.975C5.2376 13.9962 5.37493 14.0713 5.47382 14.1863C5.57271 14.3013 5.62641 14.4483 5.62492 14.6V15.8125L7.59992 14.1687C7.70881 14.0665 7.85071 14.0066 7.99992 14H9.37492C9.87544 14.0009 10.371 13.9006 10.8318 13.7052C11.2925 13.5097 11.709 13.223 12.0562 12.8625C12.1722 12.7431 12.3309 12.6748 12.4973 12.6724C12.5797 12.6713 12.6616 12.6864 12.7382 12.7168C12.8147 12.7473 12.8846 12.7925 12.9437 12.85C13.0028 12.9074 13.05 12.976 13.0826 13.0517C13.1152 13.1274 13.1326 13.2087 13.1337 13.2912C13.1349 13.3736 13.1198 13.4554 13.0893 13.532C13.0589 13.6086 13.0136 13.6784 12.9562 13.7375C12.4905 14.2159 11.9336 14.5963 11.3186 14.856C10.7035 15.1158 10.0426 15.2498 9.37492 15.25H8.22492L5.39992 17.6062C5.28748 17.6994 5.14595 17.7503 4.99992 17.75Z" fill="white"/>
</svg>
