<svg width="20" height="14" viewBox="0 0 20 14" fill="none" xmlns="http://www.w3.org/2000/svg">
<path d="M17.6923 13.8462H2.30769C1.69565 13.8462 1.10868 13.603 0.675907 13.1702C0.243131 12.7375 0 12.1505 0 11.5385V10C0 9.79599 0.0810437 9.60033 0.225302 9.45607C0.369561 9.31181 0.565218 9.23077 0.769231 9.23077C1.38127 9.23077 1.96824 8.98764 2.40102 8.55486C2.83379 8.12209 3.07692 7.53512 3.07692 6.92308C3.07692 6.31104 2.83379 5.72407 2.40102 5.29129C1.96824 4.85852 1.38127 4.61538 0.769231 4.61538C0.565218 4.61538 0.369561 4.53434 0.225302 4.39008C0.0810437 4.24582 0 4.05017 0 3.84615V2.30769C0 1.69565 0.243131 1.10868 0.675907 0.675907C1.10868 0.243131 1.69565 0 2.30769 0H17.6923C18.3043 0 18.8913 0.243131 19.3241 0.675907C19.7569 1.10868 20 1.69565 20 2.30769V3.84615C20 4.05017 19.919 4.24582 19.7747 4.39008C19.6304 4.53434 19.4348 4.61538 19.2308 4.61538C18.6187 4.61538 18.0318 4.85852 17.599 5.29129C17.1662 5.72407 16.9231 6.31104 16.9231 6.92308C16.9231 7.53512 17.1662 8.12209 17.599 8.55486C18.0318 8.98764 18.6187 9.23077 19.2308 9.23077C19.4348 9.23077 19.6304 9.31181 19.7747 9.45607C19.919 9.60033 20 9.79599 20 10V11.5385C20 12.1505 19.7569 12.7375 19.3241 13.1702C18.8913 13.603 18.3043 13.8462 17.6923 13.8462ZM1.53846 10.6923V11.5385C1.53846 11.7425 1.61951 11.9381 1.76376 12.0824C1.90802 12.2266 2.10368 12.3077 2.30769 12.3077H17.6923C17.8963 12.3077 18.092 12.2266 18.2362 12.0824C18.3805 11.9381 18.4615 11.7425 18.4615 11.5385V10.6923C17.5921 10.5158 16.8104 10.0441 16.2489 9.35712C15.6875 8.67019 15.3808 7.81027 15.3808 6.92308C15.3808 6.03588 15.6875 5.17596 16.2489 4.48903C16.8104 3.8021 17.5921 3.3304 18.4615 3.15385V2.30769C18.4615 2.10368 18.3805 1.90802 18.2362 1.76376C18.092 1.61951 17.8963 1.53846 17.6923 1.53846H2.30769C2.10368 1.53846 1.90802 1.61951 1.76376 1.76376C1.61951 1.90802 1.53846 2.10368 1.53846 2.30769V3.15385C2.40791 3.3304 3.1896 3.8021 3.75106 4.48903C4.31252 5.17596 4.61924 6.03588 4.61924 6.92308C4.61924 7.81027 4.31252 8.67019 3.75106 9.35712C3.1896 10.0441 2.40791 10.5158 1.53846 10.6923Z" fill="#FA4242"/>
<path d="M7.69233 2.30769C7.48831 2.30769 7.29266 2.22665 7.1484 2.08239C7.00414 1.93813 6.9231 1.74247 6.9231 1.53846V0.769231C6.9231 0.565218 7.00414 0.369561 7.1484 0.225303C7.29266 0.0810439 7.48831 0 7.69233 0C7.89634 0 8.092 0.0810439 8.23625 0.225303C8.38051 0.369561 8.46156 0.565218 8.46156 0.769231V1.53846C8.46156 1.74247 8.38051 1.93813 8.23625 2.08239C8.092 2.22665 7.89634 2.30769 7.69233 2.30769Z" fill="#FA4242"/>
<path d="M7.69233 13.8463C7.48831 13.8463 7.29266 13.7652 7.1484 13.621C7.00414 13.4767 6.9231 13.281 6.9231 13.077V12.3078C6.9231 12.1038 7.00414 11.9081 7.1484 11.7639C7.29266 11.6196 7.48831 11.5386 7.69233 11.5386C7.89634 11.5386 8.092 11.6196 8.23625 11.7639C8.38051 11.9081 8.46156 12.1038 8.46156 12.3078V13.077C8.46156 13.281 8.38051 13.4767 8.23625 13.621C8.092 13.7652 7.89634 13.8463 7.69233 13.8463Z" fill="#FA4242"/>
<path d="M7.6924 5.38464C7.51449 5.38361 7.34244 5.32095 7.20555 5.20732C7.06865 5.09369 6.97537 4.93612 6.9416 4.76145C6.90783 4.58678 6.93565 4.40579 7.02032 4.24933C7.10499 4.09286 7.24128 3.97058 7.40598 3.9033C7.57068 3.83603 7.75361 3.82793 7.92361 3.88038C8.09361 3.93282 8.24018 4.04257 8.33835 4.19094C8.43653 4.33931 8.48024 4.51713 8.46204 4.6941C8.44384 4.87108 8.36486 5.03628 8.23855 5.16156C8.09114 5.30213 7.89606 5.38181 7.6924 5.38464Z" fill="#FA4242"/>
<path d="M7.6924 7.69226C7.51449 7.69123 7.34244 7.62857 7.20555 7.51494C7.06865 7.40131 6.97537 7.24374 6.9416 7.06907C6.90783 6.89439 6.93565 6.71341 7.02032 6.55694C7.10499 6.40047 7.24128 6.27819 7.40598 6.21092C7.57068 6.14365 7.75361 6.13555 7.92361 6.18799C8.09361 6.24044 8.24018 6.35019 8.33835 6.49856C8.43653 6.64693 8.48024 6.82474 8.46204 7.00172C8.44384 7.1787 8.36486 7.34389 8.23855 7.46918C8.16539 7.53921 8.07913 7.59411 7.9847 7.63072C7.89223 7.67013 7.79292 7.69104 7.6924 7.69226Z" fill="#FA4242"/>
<path d="M7.69252 9.99987C7.51461 9.99885 7.34256 9.93618 7.20567 9.82255C7.06877 9.70893 6.9755 9.55136 6.94172 9.37668C6.90795 9.20201 6.93577 9.02103 7.02044 8.86456C7.10511 8.70809 7.2414 8.58581 7.4061 8.51854C7.5708 8.45127 7.75373 8.44316 7.92373 8.49561C8.09373 8.54806 8.2403 8.65781 8.33848 8.80618C8.43665 8.95455 8.48036 9.13236 8.46216 9.30934C8.44396 9.48631 8.36499 9.65151 8.23867 9.7768C8.09126 9.91736 7.89619 9.99704 7.69252 9.99987Z" fill="#FA4242"/>
</svg>
