<svg height="512pt" viewBox="0 0 512 512" width="512pt" xmlns="http://www.w3.org/2000/svg"><path d="m176 119c0-31.429688-25.570312-57-57-57s-57 25.570312-57 57 25.570312 57 57 57 57-25.570312 57-57zm-84 0c0-14.886719 12.113281-27 27-27s27 12.113281 27 27-12.113281 27-27 27-27-12.113281-27-27zm0 0"/><path d="m512 306c0-21.929688-12.902344-40.894531-31.511719-49.71875 7.230469-9.910156 11.511719-22.101562 11.511719-35.28125 0-33.085938-26.914062-60-60-60s-60 26.914062-60 60c0 13.179688 4.28125 25.371094 11.511719 35.28125-18.609375 8.824219-31.511719 27.789062-31.511719 49.71875v94h21.28125l7.320312 82h-330.601562c-11.027344 0-20-8.972656-20-20s8.972656-20 20-20h138c27.570312 0 50-22.429688 50-50s-22.429688-50-50-50h-34c-11.027344 0-20-8.972656-20-20v-51.074219c24.386719-17.230469 104-79.058593 104-151.925781 0-65.617188-53.382812-119-119-119s-119 53.382812-119 119c0 72.867188 79.613281 134.695312 104 151.925781v51.074219c0 27.570312 22.429688 50 50 50h34c11.027344 0 20 8.972656 20 20s-8.972656 20-20 20h-138c-27.570312 0-50 22.429688-50 50s22.429688 50 50 50h430.722656l10-112h21.277344zm-482-187c0-49.074219 39.925781-89 89-89s89 39.925781 89 89c0 34.535156-25.714844 67.972656-47.285156 89.941406-16.050782 16.347656-32.316406 28.96875-41.722656 35.792969-9.304688-6.746094-25.328126-19.175781-41.308594-35.390625-21.753906-22.066406-47.683594-55.652344-47.683594-90.34375zm402 72c16.542969 0 30 13.457031 30 30s-13.457031 30-30 30-30-13.457031-30-30 13.457031-30 30-30zm-50 115c0-13.785156 11.214844-25 25-25h50c13.785156 0 25 11.214844 25 25v64h-100zm71.277344 176h-42.558594l-7.320312-82h57.203124zm0 0"/></svg>