<svg width="20" height="20" viewBox="0 0 20 20" fill="none" xmlns="http://www.w3.org/2000/svg">
<path d="M3.57059 17.0714C3.92563 17.0714 4.21345 16.7836 4.21345 16.4286C4.21345 16.0735 3.92563 15.7857 3.57059 15.7857C3.21555 15.7857 2.92773 16.0735 2.92773 16.4286C2.92773 16.7836 3.21555 17.0714 3.57059 17.0714Z" fill="#34A1D3"/>
<path fill-rule="evenodd" clip-rule="evenodd" d="M4.61306 16.4286C4.61306 17.0045 4.14616 17.4714 3.5702 17.4714C2.99425 17.4714 2.52734 17.0045 2.52734 16.4286C2.52734 15.8526 2.99425 15.3857 3.5702 15.3857C4.14616 15.3857 4.61306 15.8526 4.61306 16.4286ZM4.21306 16.4286C4.21306 16.7836 3.92524 17.0714 3.5702 17.0714C3.21516 17.0714 2.92734 16.7836 2.92734 16.4286C2.92734 16.0735 3.21516 15.7857 3.5702 15.7857C3.92524 15.7857 4.21306 16.0735 4.21306 16.4286Z" fill="#34A1D3"/>
<path d="M19 9.67859C19 8.77859 18.2929 8.07146 17.3929 8.07146H13.5357C14.1786 4.85714 13.8571 1 11.2857 1C8.71429 1 10.0643 4.08571 9.0357 6.01429C8.00713 7.94286 6.14286 8.07143 6.14286 8.07143H5.82145H2.28571C1.57855 8.07143 1 8.64998 1 9.35714V17.7143C1 18.4214 1.57855 19 2.28571 19H5.82145H9.55002H14.8214C15.7214 19 16.4286 18.2929 16.4286 17.3929C16.4286 17.0072 16.3 16.6857 16.1072 16.4286C17.0072 16.4286 17.7143 15.7214 17.7143 14.8214C17.7143 14.4357 17.5857 14.05 17.3286 13.7286C17.9714 13.4715 18.3571 12.8929 18.3571 12.25C18.3571 11.8643 18.2286 11.4786 17.9714 11.1571C18.55 10.9643 19 10.3857 19 9.67859ZM5.5 18.3571H2.28571C1.9643 18.3571 1.64286 18.0357 1.64286 17.7143V9.35714C1.64286 8.97143 1.9 8.71429 2.28571 8.71429H5.5V18.3571ZM17.3929 10.6429H15.1429V11.2857H16.75C17.2643 11.2857 17.7143 11.7357 17.7143 12.25C17.7143 12.7643 17.2643 13.2143 16.75 13.2143H14.5V13.8571H16.1071C16.6214 13.8571 17.0714 14.3072 17.0714 14.8214C17.0714 15.3357 16.6214 15.7857 16.1071 15.7857H13.8571V16.4286H14.8214C15.3357 16.4286 15.7857 16.8786 15.7857 17.3929C15.7857 17.9072 15.3357 18.3572 14.8214 18.3572H12.4429H6.14286C6.14286 18.3572 6.14286 10 6.14286 8.71432C7.10716 8.71432 7.94286 8.07146 7.94286 8.07146C8.52145 7.68575 9.1643 7.17146 9.61432 6.33573C10.5786 4.40713 9.42141 1.64286 11.2857 1.64286C13.2143 1.64286 13.4714 4.79284 12.8928 8.07143L12.7643 8.71429H17.3928C17.9071 8.71429 18.3571 9.1643 18.3571 9.67859C18.3571 10.1929 17.9071 10.6429 17.3929 10.6429Z" fill="#34A1D3"/>
<path fill-rule="evenodd" clip-rule="evenodd" d="M12.8925 8.07143C13.471 4.79284 13.2139 1.64286 11.2853 1.64286C10.1799 1.64286 10.1368 2.6147 10.0838 3.80795C10.0474 4.62713 10.0064 5.55067 9.61393 6.33573C9.16391 7.17146 8.52106 7.68575 7.94247 8.07146C7.94247 8.07146 7.10677 8.71432 6.14247 8.71432V18.3572H14.8211C15.3353 18.3572 15.7854 17.9072 15.7854 17.3929C15.7854 16.8786 15.3353 16.4286 14.8211 16.4286H13.8568V15.7857H16.1067C16.621 15.7857 17.071 15.3357 17.071 14.8214C17.071 14.3072 16.621 13.8571 16.1067 13.8571H14.4996V13.2143H16.7496C17.2639 13.2143 17.7139 12.7643 17.7139 12.25C17.7139 11.7357 17.2639 11.2857 16.7496 11.2857H15.1425V10.6429H17.3925C17.9067 10.6429 18.3568 10.1929 18.3568 9.67859C18.3568 9.1643 17.9067 8.71428 17.3925 8.71428H12.7639L12.8925 8.07143ZM6.12453 7.67143H2.28532C1.35725 7.67143 0.599609 8.42907 0.599609 9.35714V17.7143C0.599609 18.6423 1.35724 19.4 2.28532 19.4H14.8211C15.942 19.4 16.8282 18.5138 16.8282 17.3929C16.8282 17.1549 16.7885 16.9356 16.7193 16.736C17.5341 16.4812 18.1139 15.7281 18.1139 14.8214C18.1139 14.498 18.0404 14.1749 17.8941 13.8774C18.4358 13.5055 18.7568 12.9066 18.7568 12.25C18.7568 11.9304 18.685 11.6112 18.5421 11.3167C19.0525 10.9716 19.3996 10.3705 19.3996 9.67859C19.3996 8.55767 18.5134 7.67146 17.3925 7.67146H14.0155C14.2685 6.16186 14.3116 4.54172 14.005 3.23874C13.8352 2.51705 13.5509 1.86158 13.1055 1.381C12.6494 0.888917 12.0415 0.599998 11.2853 0.599998C10.5555 0.599998 10.0257 0.824221 9.67912 1.26506C9.3545 1.67797 9.24178 2.22147 9.18419 2.73975C9.15473 3.00487 9.13813 3.2835 9.12192 3.55651L9.12159 3.56217C9.10528 3.83686 9.0892 4.10776 9.06134 4.37583C9.00495 4.91826 8.90325 5.41188 8.68237 5.82605C8.2169 6.6988 7.56753 7.15846 7.03617 7.4026C6.76912 7.5253 6.53175 7.59344 6.36349 7.63063C6.27954 7.64919 6.21339 7.65991 6.17012 7.66586C6.14946 7.6687 6.13408 7.67044 6.12453 7.67143ZM13.5353 8.07146C13.5618 7.93911 13.5866 7.80568 13.6098 7.67146C14.1479 4.54605 13.7509 0.999998 11.2853 0.999998C9.67438 0.999998 9.60249 2.21107 9.52064 3.58998C9.47184 4.41212 9.4195 5.29392 9.03531 6.01428C8.00674 7.94286 6.14247 8.07143 6.14247 8.07143H2.28532C1.57816 8.07143 0.999609 8.64998 0.999609 9.35714V17.7143C0.999609 18.4214 1.57816 19 2.28532 19H14.8211C15.7211 19 16.4282 18.2929 16.4282 17.3929C16.4282 17.1818 16.3897 16.99 16.3232 16.8174C16.2682 16.6746 16.1941 16.545 16.1068 16.4286C16.2604 16.4286 16.4083 16.408 16.5481 16.3693C17.2275 16.1816 17.7139 15.5679 17.7139 14.8214C17.7139 14.5653 17.6572 14.3092 17.5438 14.0718C17.4864 13.9518 17.4146 13.8366 17.3282 13.7286C17.4578 13.6767 17.5771 13.6118 17.6847 13.5359C18.1109 13.2354 18.3568 12.7632 18.3568 12.25C18.3568 11.995 18.3006 11.7401 18.1882 11.5036C18.1306 11.3824 18.0582 11.2661 17.971 11.1571C18.0998 11.1142 18.2222 11.0522 18.3347 10.9739C18.7276 10.7004 18.9996 10.2283 18.9996 9.67859C18.9996 8.77859 18.2925 8.07146 17.3925 8.07146H13.5353ZM6.54247 17.9572H14.8211C15.1144 17.9572 15.3854 17.6862 15.3854 17.3929C15.3854 17.0995 15.1144 16.8286 14.8211 16.8286H13.4568V15.3857H16.1067C16.4001 15.3857 16.671 15.1148 16.671 14.8214C16.671 14.5281 16.4001 14.2571 16.1067 14.2571H14.0996V12.8143H16.7496C17.043 12.8143 17.3139 12.5434 17.3139 12.25C17.3139 11.9566 17.043 11.6857 16.7496 11.6857H14.7425V10.2429H17.3925C17.6858 10.2429 17.9568 9.97195 17.9568 9.67859C17.9568 9.38521 17.6858 9.11428 17.3925 9.11428H12.276L12.4993 7.99748C12.7841 6.3814 12.8558 4.83133 12.6364 3.70409C12.5265 3.13932 12.3501 2.71592 12.123 2.44102C11.9082 2.18091 11.6411 2.04286 11.2853 2.04286C11.1014 2.04286 10.9838 2.07684 10.9062 2.11828C10.8313 2.15823 10.7709 2.21706 10.7188 2.30646C10.6021 2.50655 10.5434 2.82562 10.5112 3.29358C10.5006 3.4466 10.4929 3.61921 10.4846 3.80228C10.4699 4.12907 10.4537 4.48924 10.4175 4.83102C10.3589 5.38345 10.2432 5.97151 9.9717 6.51461L9.96628 6.52546C9.4738 7.44004 8.77338 7.99734 8.1737 8.39804L8.17094 8.4001C8.16256 8.40631 8.15099 8.41476 8.13639 8.42513C8.10721 8.44587 8.06584 8.47437 8.01368 8.50803C7.90961 8.57516 7.76109 8.66379 7.57945 8.7524C7.30785 8.88488 6.94762 9.02451 6.54247 9.0843V17.9572ZM2.28532 17.9571H5.09961V9.11428H2.28532C2.18337 9.11428 2.12948 9.14652 2.1021 9.17391C2.07471 9.2013 2.04247 9.25518 2.04247 9.35714V17.7143C2.04247 17.7449 2.06181 17.809 2.1262 17.8734C2.1906 17.9378 2.25471 17.9571 2.28532 17.9571ZM5.49961 18.3571V8.71428H2.28532C1.89961 8.71428 1.64247 8.97143 1.64247 9.35714V17.7143C1.64247 18.0357 1.96391 18.3571 2.28532 18.3571H5.49961Z" fill="#34A1D3"/>
</svg>
