<svg id="Capa_1" enable-background="new 0 0 506.051 506.051" height="512" viewBox="0 0 506.051 506.051" width="512" xmlns="http://www.w3.org/2000/svg"><g id="XMLID_549_"><path id="XMLID_664_" d="m435.918 117.152h-106.084v-40.736c0-42.136-34.28-76.416-76.416-76.416h-.783c-42.135 0-76.415 34.28-76.415 76.416v40.736h-106.088l-10.836 388.899h387.458zm-229.698-40.736c0-25.594 20.822-46.416 46.416-46.416h.783c25.594 0 46.416 20.822 46.416 46.416v40.736h-93.615zm-116.076 399.635 9.164-328.899h307.435l9.164 328.899z"/><path id="XMLID_710_" d="m252.36 214.623-67.053 51.979h-25.447v30h15.58v78h-15.58v30h186.333v-30h-16.913v-78h16.913v-30h-26.779zm0 37.958 18.087 14.021h-36.175zm-46.92 44.021h31.92v78h-31.92zm93.841 78h-31.921v-78h31.921z"/></g></svg>