<svg width="20" height="19" viewBox="0 0 20 19" fill="none" xmlns="http://www.w3.org/2000/svg">
<path d="M13.5717 2.14285L13.5717 5.71429C13.5717 6.1088 13.2519 6.4286 12.8574 6.4286C12.4629 6.4286 12.1431 6.1088 12.1431 5.71429L12.1431 2.14285C12.1431 1.74834 11.8233 1.42854 11.4288 1.42854H2.14302C1.74851 1.42854 1.42872 1.74834 1.42872 2.14285L1.42872 16.4287C1.42872 16.8232 1.74851 17.143 2.14302 17.143H11.4289C11.8234 17.143 12.1432 16.8232 12.1432 16.4287V12.8572C12.1432 12.4627 12.463 12.1429 12.8575 12.1429C13.252 12.1429 13.5718 12.4627 13.5718 12.8572V16.4287C13.5718 17.6121 12.6124 18.5715 11.4289 18.5715H2.1431C0.959628 18.5715 0.000230789 17.6121 0.000230789 16.4287L0.000230789 2.14285C0.000230789 0.959375 0.959628 -2.28882e-05 2.1431 -2.28882e-05H11.4289C12.6123 -2.28882e-05 13.5717 0.959375 13.5717 2.14285Z" fill="white"/>
<path d="M16.2194 5.20934L19.7909 8.78077C20.0697 9.05968 20.0697 9.51186 19.7909 9.79077L16.2194 13.3622C15.9356 13.6363 15.4835 13.6284 15.2094 13.3447C14.9421 13.0679 14.9421 12.629 15.2094 12.3522L17.5616 10H5.7143C5.3198 10 5 9.68023 5 9.28573C5 8.89122 5.3198 8.57142 5.7143 8.57142H17.5615L15.2094 6.21925C14.9353 5.93548 14.9432 5.4833 15.2269 5.20925C15.5038 4.94198 15.9426 4.94198 16.2194 5.20934Z" fill="white"/>
</svg>
