<svg id="Capa_1" enable-background="new 0 0 512 512" height="512" viewBox="0 0 512 512" width="512" xmlns="http://www.w3.org/2000/svg"><g><path d="m15 512h482c8.284 0 15-6.716 15-15v-270c0-8.284-6.716-15-15-15h-46v-15c0-8.284-6.716-15-15-15s-15 6.716-15 15v15h-53.642l-51.358-53.069v-38.931h45c8.284 0 15-6.716 15-15v-90c0-8.284-6.716-15-15-15h-210c-8.284 0-15 6.716-15 15v90c0 8.284 6.716 15 15 15h45v38.931l-51.358 53.069h-129.642c-8.284 0-15 6.716-15 15v270c0 8.284 6.716 15 15 15zm15-30v-120h122.076c7.301 50.817 51.12 90 103.924 90s96.623-39.183 103.924-90h122.076v120zm151-135c0-41.355 33.645-75 75-75s75 33.645 75 75-33.645 75-75 75-75-33.645-75-75zm-15-317h180v60c-22.693 0-157.334 0-180 0zm120 90v30h-60v-30zm-135 122c4.063 0 7.953-1.649 10.779-4.569l55.579-57.431h77.284l55.579 57.431c2.826 2.92 6.715 4.569 10.779 4.569h121v90h-122.076c-7.301-50.817-51.12-90-103.924-90s-96.623 39.183-103.924 90h-122.076v-90z"/><path d="m256 392c24.813 0 45-20.187 45-45s-20.187-45-45-45-45 20.187-45 45 20.187 45 45 45zm0-60c8.271 0 15 6.729 15 15s-6.729 15-15 15-15-6.729-15-15 6.729-15 15-15z"/><path d="m76 302h30c8.284 0 15-6.716 15-15s-6.716-15-15-15h-30c-8.284 0-15 6.716-15 15s6.716 15 15 15z"/></g></svg>