<svg id="Capa_1" enable-background="new 0 0 512 512" height="512" viewBox="0 0 512 512" width="512" xmlns="http://www.w3.org/2000/svg"><g><path d="m430.865 382.271v-320.098c0-34.282-27.89-62.173-62.173-62.173h-290.028c-34.283 0-62.174 27.891-62.174 62.173v67.556h94.347v320.098c0 34.283 27.891 62.173 62.173 62.173h260.327c34.283 0 62.173-27.891 62.173-62.173v-67.556zm-320.028-282.542h-64.347v-37.556c0-17.74 14.433-32.173 32.174-32.173s32.173 14.433 32.173 32.173zm94.346 350.098c0 17.74-14.433 32.173-32.173 32.173s-32.173-14.433-32.173-32.173v-387.654c0-11.768-3.287-22.781-8.99-32.173h236.845c17.74 0 32.173 14.433 32.173 32.173v320.098h-195.682zm260.327 0c0 17.74-14.433 32.173-32.173 32.173h-207.143c5.703-9.392 8.989-20.405 8.989-32.173v-37.556h230.327z"/><path d="m185.836 74.107h85.014v30h-85.014z"/><path d="m325.865 74.107h30v30h-30z"/><path d="m185.836 132.621h170.028v30h-170.028z"/><path d="m185.836 191.136h170.028v30h-170.028z"/><path d="m185.836 249.65h170.028v30h-170.028z"/><path d="m185.836 308.165h170.028v30h-170.028z"/></g></svg>