<svg width="30" height="26" viewBox="0 0 30 26" fill="none" xmlns="http://www.w3.org/2000/svg">
<path d="M1.87514 25.1875C1.77874 25.201 1.68093 25.201 1.58452 25.1875C1.38873 25.1239 1.2193 24.9977 1.10239 24.8283C0.985476 24.6588 0.927583 24.4556 0.937644 24.25V23.3125C0.938015 19.0761 2.44828 14.9785 5.19737 11.7552C7.94646 8.53188 11.7544 6.39391 15.9376 5.725V1.75C15.9376 1.5759 15.9861 1.40523 16.0777 1.25713C16.1692 1.10903 16.3002 0.989337 16.4559 0.911475C16.6116 0.833613 16.7859 0.800653 16.9593 0.816289C17.1327 0.831924 17.2984 0.895537 17.4376 1L28.6876 9.4375C28.8041 9.52483 28.8986 9.63806 28.9637 9.76824C29.0288 9.89841 29.0626 10.042 29.0626 10.1875C29.0626 10.333 29.0288 10.4766 28.9637 10.6068C28.8986 10.7369 28.8041 10.8502 28.6876 10.9375L17.4376 19.375C17.2984 19.4795 17.1327 19.5431 16.9593 19.5587C16.7859 19.5743 16.6116 19.5414 16.4559 19.4635C16.3002 19.3857 16.1692 19.266 16.0777 19.1179C15.9861 18.9698 15.9376 18.7991 15.9376 18.625V15.1094C11.3979 15.8503 7.33267 18.3494 4.62202 22.0656L2.63452 24.8031C2.54724 24.9226 2.43295 25.0196 2.30096 25.0865C2.16898 25.1533 2.02307 25.1879 1.87514 25.1875ZM17.8126 3.625V6.55C17.8141 6.78176 17.7296 7.00583 17.5755 7.17896C17.4214 7.35209 17.2086 7.46201 16.9783 7.4875C13.4433 7.87316 10.1388 9.42997 7.59056 11.9102C5.04235 14.3905 3.39682 17.6517 2.91577 21.175L3.06577 20.9781C4.67008 18.7753 6.72076 16.9354 9.08406 15.5785C11.4474 14.2215 14.0702 13.3781 16.7814 13.1031C16.9121 13.091 17.0439 13.1064 17.1682 13.1484C17.2926 13.1903 17.4067 13.258 17.5033 13.3469C17.6004 13.4345 17.6781 13.5415 17.7314 13.661C17.7847 13.7805 17.8123 13.9098 17.8126 14.0406V16.75L26.5595 10.1875L17.8126 3.625Z" fill="#34A1D3"/>
</svg>
