<?xml version="1.0" encoding="iso-8859-1"?>
<!-- Generator: Adobe Illustrator 19.0.0, SVG Export Plug-In . SVG Version: 6.00 Build 0)  -->
<svg version="1.1" id="Capa_1" xmlns="http://www.w3.org/2000/svg" xmlns:xlink="http://www.w3.org/1999/xlink" x="0px" y="0px"
	 viewBox="0 0 512 512" style="enable-background:new 0 0 512 512;" xml:space="preserve">
<g>
	<g>
		<path d="M466.5,241h-95.525c30.785-24.948,50.525-63.192,50.525-106c0-8.284-6.716-15-15-15h-45v-15c0-8.284-6.716-15-15-15
			s-15,6.716-15,15v15h-60V45c0-24.813-20.187-45-45-45h-30c-8.284,0-15,6.716-15,15s6.716,15,15,15h30c8.271,0,15,6.729,15,15v75
			h-60v-15c0-8.284-6.716-15-15-15s-15,6.716-15,15v15h-45c-8.284,0-15,6.716-15,15c0,42.541,19.74,81.052,50.525,106H45.5
			c-8.284,0-15,6.716-15,15c0,10.024,0,230.938,0,241c0,8.284,6.716,15,15,15h61c6.475,0,12.219-4.154,14.246-10.304L147.349,421
			h218.302l26.603,80.696c2.027,6.15,7.771,10.304,14.246,10.304h60c8.284,0,15-6.716,15-15c0-10.07,0-230.951,0-241
			C481.5,247.716,474.784,241,466.5,241z M122.548,149.9h267.904C383.213,201.271,339.354,241,286.5,241h-60
			C173.646,241,129.787,201.271,122.548,149.9z M95.651,482H60.5v-61h55.261L95.651,482z M241.5,391c-5.427,0-170.212,0-181,0V271
			c10.89,0,170.568,0,181,0V391z M451.5,482h-34.151l-20.109-61h54.26V482z M451.5,391c-9.285,0-173.147,0-180,0V271
			c10.41,0,169.435,0,180,0V391z"/>
	</g>
</g>
<g>
	<g>
		<path d="M316.5,301c-8.284,0-15,6.716-15,15v30c0,8.284,6.716,15,15,15s15-6.716,15-15v-30C331.5,307.716,324.784,301,316.5,301z"
			/>
	</g>
</g>
<g>
	<g>
		<path d="M196.5,301c-8.284,0-15,6.716-15,15v30c0,8.284,6.716,15,15,15s15-6.716,15-15v-30C211.5,307.716,204.784,301,196.5,301z"
			/>
	</g>
</g>
<g>
</g>
<g>
</g>
<g>
</g>
<g>
</g>
<g>
</g>
<g>
</g>
<g>
</g>
<g>
</g>
<g>
</g>
<g>
</g>
<g>
</g>
<g>
</g>
<g>
</g>
<g>
</g>
<g>
</g>
</svg>
