<svg id="Capa_1" enable-background="new 0 0 512 512" height="512" viewBox="0 0 512 512" width="512" xmlns="http://www.w3.org/2000/svg"><g><path d="m498.35 361.534v-36.034c0-38.496-31.319-69.815-69.816-69.815-101.945 0-184.883-82.938-184.883-184.884v-15h-230v305.733h-13.651v94.666h512v-94.666zm-30-36.034v36.034h-65.2v-77.335c8.364.978 16.834 1.485 25.383 1.485 21.955 0 39.817 17.861 39.817 39.816zm-95.2-13.476c-18.56-4.083-36.303-10.277-52.993-18.292l17.059-28.298c11.546 5.426 23.565 9.792 35.934 13.069zm-62.125-61.25-17.08 28.332c-19.144-12.268-36.468-27.095-51.515-43.955l30.562-16.089c1.183 1.239 2.38 2.468 3.595 3.684 10.621 10.62 22.165 19.978 34.438 28.028zm-57.577-55.326-29.916 15.749c-10.053-14.477-18.59-30.043-25.409-46.443h37.038c5.201 10.68 11.313 20.941 18.287 30.694zm-30.157-60.695h-35.431c-4.291-15.809-7.035-32.189-8.065-48.953h34.367c1.149 16.783 4.236 33.183 9.129 48.953zm-73.549-48.953c.898 16.579 3.277 32.957 7.07 48.953h-113.162v-48.953zm-106.092 78.953h122.096c11.547 32.033 28.977 61.913 51.706 87.981 40.633 46.602 95.527 78.209 155.698 89.923v18.875h-329.5zm-13.65 226.781h279.75v34.666h-279.75zm452 34.666h-142.25v-34.666h142.25z"/><path d="m122.333 205.869c-29.676 0-53.819 24.144-53.819 53.819s24.143 53.819 53.819 53.819 53.819-24.144 53.819-53.819-24.143-53.819-53.819-53.819zm0 77.638c-13.134 0-23.819-10.686-23.819-23.819s10.685-23.819 23.819-23.819 23.819 10.686 23.819 23.819-10.685 23.819-23.819 23.819z"/></g></svg>