<svg width="28" height="23" viewBox="0 0 28 23" fill="none" xmlns="http://www.w3.org/2000/svg">
<path d="M2.27742 10.8306L2.29247 10.8246L2.30732 10.8181C9.75859 7.57171 14.7187 5.43524 17.1954 4.40512C20.7475 2.92765 22.8692 2.07052 24.2199 1.5804C25.5877 1.08403 26.061 1.00533 26.3619 1.00003C26.3888 0.999551 26.4755 1.00387 26.5715 1.0268C26.6164 1.03753 26.6524 1.04979 26.6785 1.06124C26.6839 1.06359 26.6884 1.06572 26.6921 1.06758C26.6937 1.07232 26.6955 1.0783 26.6975 1.0857C26.7023 1.10352 26.7071 1.12602 26.7126 1.15807C26.7221 1.21357 26.7378 1.33875 26.7467 1.49245C26.7558 1.64723 26.7557 1.79344 26.7455 1.90067C26.3658 5.89068 24.71 15.6553 23.8627 20.1847C23.6988 21.0612 23.4738 21.5342 23.2948 21.7724C23.138 21.9809 23.0362 21.9902 23.0084 21.9927L23.0076 21.9928C22.5605 22.0339 22.1236 21.8982 21.564 21.5694C21.2814 21.4034 20.9903 21.202 20.6602 20.9676C20.6075 20.9301 20.5537 20.8917 20.4989 20.8526C20.2205 20.6542 19.9161 20.4371 19.599 20.2293C18.4822 19.4972 17.6083 18.9033 16.7374 18.3102L16.6211 18.2311C15.7885 17.664 14.9479 17.0916 13.8979 16.3997C13.3193 16.0184 13.1158 15.7638 13.0535 15.6444C13.0516 15.6409 13.0499 15.6377 13.0483 15.6347C13.0286 15.5975 13.0278 15.596 13.0533 15.5379C13.1108 15.4067 13.2558 15.2112 13.5639 14.8977C13.6937 14.7657 13.8342 14.6302 13.9915 14.4785C14.0116 14.4592 14.0319 14.4396 14.0525 14.4198C14.2303 14.2481 14.4248 14.0593 14.6185 13.8582C14.6181 13.8586 14.626 13.8505 14.6477 13.8295C14.6675 13.8102 14.6937 13.7851 14.7266 13.7539C14.7923 13.6915 14.8796 13.6094 14.9865 13.5094C15.1793 13.3291 15.4305 13.0956 15.7235 12.8232L15.8202 12.7333C16.4881 12.1124 17.3473 11.313 18.1992 10.5084C19.0497 9.70525 19.8998 8.89041 20.5477 8.23953C20.8703 7.91546 21.1528 7.62207 21.3628 7.38644C21.4667 7.26995 21.5647 7.15426 21.6442 7.0483C21.6836 6.9957 21.7283 6.93245 21.7692 6.86358C21.8002 6.81139 21.8738 6.68354 21.9133 6.51506L21.9134 6.51504C21.9518 6.35117 21.9619 6.14387 21.9315 5.9387C21.9012 5.73416 21.8064 5.37293 21.4852 5.08743C21.1678 4.80531 20.806 4.74777 20.5678 4.74591C20.3519 4.74422 20.1586 4.7883 20.079 4.80643L20.0704 4.80839C19.9135 4.84401 19.7746 4.91906 19.7466 4.93423C19.7449 4.93514 19.7436 4.93583 19.7428 4.93629C19.6816 4.96859 19.6123 5.00833 19.5398 5.05127C19.3929 5.13826 19.1965 5.26014 18.9549 5.41363C18.4698 5.72183 17.776 6.17429 16.8763 6.76896C15.0755 7.95919 12.4338 9.72979 8.95278 12.0796L8.95276 12.0796L8.9462 12.0841C8.0181 12.7214 7.30032 12.944 6.76247 12.9324C6.42764 12.9251 5.85505 12.8218 5.14498 12.6438C4.45811 12.4715 3.71621 12.2487 3.0775 12.041C2.84826 11.9665 2.63827 11.9004 2.44558 11.8397C1.90034 11.668 1.49368 11.54 1.18179 11.3889C1.17778 11.387 1.17383 11.385 1.16994 11.3831C1.39173 11.2285 1.74867 11.0408 2.27742 10.8306ZM0.960545 11.5628C0.960518 11.5628 0.960907 11.5622 0.961797 11.561C0.961018 11.5622 0.960573 11.5628 0.960545 11.5628ZM20.6988 6.69389C20.6984 6.69432 20.6914 6.69798 20.6792 6.70353C20.693 6.69623 20.6992 6.69346 20.6988 6.69389Z" stroke="#34A1D3" stroke-width="2"/>
</svg>
