<?xml version="1.0" encoding="iso-8859-1"?>
<!-- Generator: Adobe Illustrator 19.0.0, SVG Export Plug-In . SVG Version: 6.00 Build 0)  -->
<svg version="1.1" id="Layer_1" xmlns="http://www.w3.org/2000/svg" xmlns:xlink="http://www.w3.org/1999/xlink" x="0px" y="0px"
	 viewBox="0 0 512 512" style="enable-background:new 0 0 512 512;" xml:space="preserve">
<g>
	<g>
		<path d="M52.772,175.377v247.178h267.941V175.377H52.772z M290.745,392.587H82.74V205.345h208.005V392.587z"/>
	</g>
</g>
<g>
	<g>
		<path d="M396.431,175.377c-26.335,0-47.759,21.425-47.759,47.76s21.424,47.759,47.759,47.759s47.76-21.425,47.76-47.759
			C444.191,196.803,422.766,175.377,396.431,175.377z M396.431,240.928c-9.81,0-17.791-7.981-17.791-17.791
			c0-9.81,7.981-17.792,17.791-17.792c9.81,0,17.792,7.981,17.792,17.792S406.242,240.928,396.431,240.928z"/>
	</g>
</g>
<g>
	<g>
		<rect x="349.246" y="290.508" width="94.639" height="29.968"/>
	</g>
</g>
<g>
	<g>
		<rect x="349.246" y="339.786" width="94.639" height="29.968"/>
	</g>
</g>
<g>
	<g>
		<rect x="349.246" y="389.882" width="94.639" height="29.968"/>
	</g>
</g>
<g>
	<g>
		<path d="M182.285,129.77l69.199-114.245L225.851,0l-78.603,129.77h-15.21L53.434,0L27.802,15.526L97,129.77H6.094v338.392H43.21
			L65.13,512h381.742l21.918-43.837h37.116V129.77H182.285z M428.35,482.032H83.651l-6.935-13.869h358.57L428.35,482.032z
			 M475.939,438.194H36.062V159.738h439.877V438.194z"/>
	</g>
</g>
<g>
</g>
<g>
</g>
<g>
</g>
<g>
</g>
<g>
</g>
<g>
</g>
<g>
</g>
<g>
</g>
<g>
</g>
<g>
</g>
<g>
</g>
<g>
</g>
<g>
</g>
<g>
</g>
<g>
</g>
</svg>
