<svg xmlns="http://www.w3.org/2000/svg" version="1.1" xmlns:xlink="http://www.w3.org/1999/xlink" xmlns:svgjs="http://svgjs.com/svgjs" width="512" height="512" x="0" y="0" viewBox="0 0 512 512" style="enable-background:new 0 0 512 512" xml:space="preserve" class=""><g transform="matrix(-1,0,0,1,512.0001754760742,0)"><g xmlns="http://www.w3.org/2000/svg"><path d="m509.071 469.455c-3.905-3.905-10.237-3.905-14.143 0-30.012 30.013-78.846 30.013-108.857 0-3.905-3.905-10.237-3.905-14.143 0-30.012 30.013-78.846 30.013-108.857 0-3.906-3.904-10.237-3.904-14.142 0-17.899 17.898-43.304 25.544-67.534 21.412 29.414-20.855 48.648-55.167 48.648-93.888 0-.644-.018-1.285-.029-1.927 9.367-3.694 18.165-8.836 25.981-15.245 35.618 29.262 87.383 29.262 123.005.004 17.81 14.628 39.656 21.944 61.5 21.944 24.833 0 49.666-9.453 68.571-28.357 3.905-3.905 3.905-10.237 0-14.143-3.905-3.904-10.237-3.904-14.143 0-14.537 14.539-33.867 22.545-54.428 22.545s-39.891-8.007-54.429-22.545c-3.905-3.904-10.237-3.904-14.143 0-14.537 14.539-33.867 22.545-54.428 22.545s-39.891-8.007-54.429-22.545c-3.905-3.904-10.237-3.904-14.143 0-6.16 6.161-13.339 11.233-21.136 14.984-5.741-28.773-22.27-54.315-46.772-71.469v-12.116c26.758 3.73 54.023-3.874 74.974-21.046 35.618 29.262 87.379 29.266 123.001.007 17.298 14.241 38.806 21.986 61.504 21.986 25.903 0 50.255-10.087 68.571-28.403 3.905-3.905 3.905-10.237 0-14.142s-10.237-3.905-14.143 0c-14.538 14.538-33.868 22.545-54.429 22.545s-39.891-8.007-54.429-22.545c-3.905-3.905-10.237-3.905-14.143 0-30.012 30.012-78.846 30.012-108.857 0-3.905-3.905-10.237-3.905-14.143 0-17.852 17.852-43.31 25.707-67.907 21.359v-204.415c0-36.393-29.607-66-66-66s-66 29.607-66 66v236.769c-30.797 21.565-49.019 56.378-49.019 94.21 0 63.422 51.599 115.021 115.021 115.021 14.615 0 28.599-2.746 41.471-7.739 12.162 5.175 25.03 7.697 37.825 7.696 22.168-.001 44.104-7.563 61.676-21.953 35.618 29.262 87.384 29.264 123.006.005 38.056 31.258 94.536 29.122 130.071-6.414 3.907-3.903 3.907-10.235.001-14.14zm-489.071-72.476c0-32.8 16.584-62.856 44.361-80.4 2.901-1.832 4.66-5.023 4.66-8.455v-242.124c0-25.364 20.636-46 46-46s46 20.636 46 46v242.124c0 3.431 1.759 6.623 4.66 8.455 27.778 17.543 44.362 47.6 44.362 80.4 0 52.395-42.626 95.021-95.022 95.021-52.395 0-95.021-42.626-95.021-95.021z" fill="#000000" data-original="#000000" class=""></path><path d="m135.022 348.536v-130.956h-40v130.956c-19.018 7.861-32.403 26.585-32.403 48.442 0 28.942 23.462 52.404 52.404 52.404s52.404-23.462 52.404-52.404c-.002-21.857-13.388-40.581-32.405-48.442z" fill="#000000" data-original="#000000" class=""></path></g></g></svg>